G04 #@! TF.FileFunction,Legend,Top*
%FSLAX46Y46*%
G04 Gerber Fmt 4.6, Leading zero omitted, Abs format (unit mm)*
G04 Created by KiCad (PCBNEW 0.201510100348+6257~30~ubuntu14.04.1-product) date jeu. 15 oct. 2015 23:40:22 CEST*
%MOMM*%
G01*
G04 APERTURE LIST*
%ADD10C,0.100000*%
%ADD11C,0.300000*%
%ADD12C,0.150000*%
%ADD13C,0.203200*%
%ADD14C,0.010000*%
G04 APERTURE END LIST*
D10*
D11*
X143323571Y-112672857D02*
X144537857Y-112672857D01*
X144680714Y-112601429D01*
X144752143Y-112530000D01*
X144823571Y-112387143D01*
X144823571Y-112101429D01*
X144752143Y-111958571D01*
X144680714Y-111887143D01*
X144537857Y-111815714D01*
X143323571Y-111815714D01*
X144395000Y-111172857D02*
X144395000Y-110458571D01*
X144823571Y-111315714D02*
X143323571Y-110815714D01*
X144823571Y-110315714D01*
X144823571Y-108958571D02*
X144109286Y-109458571D01*
X144823571Y-109815714D02*
X143323571Y-109815714D01*
X143323571Y-109244286D01*
X143395000Y-109101428D01*
X143466429Y-109030000D01*
X143609286Y-108958571D01*
X143823571Y-108958571D01*
X143966429Y-109030000D01*
X144037857Y-109101428D01*
X144109286Y-109244286D01*
X144109286Y-109815714D01*
X143323571Y-108530000D02*
X143323571Y-107672857D01*
X144823571Y-108101428D02*
X143323571Y-108101428D01*
X153642143Y-112744286D02*
X153713571Y-112530000D01*
X153713571Y-112172857D01*
X153642143Y-112030000D01*
X153570714Y-111958571D01*
X153427857Y-111887143D01*
X153285000Y-111887143D01*
X153142143Y-111958571D01*
X153070714Y-112030000D01*
X152999286Y-112172857D01*
X152927857Y-112458571D01*
X152856429Y-112601429D01*
X152785000Y-112672857D01*
X152642143Y-112744286D01*
X152499286Y-112744286D01*
X152356429Y-112672857D01*
X152285000Y-112601429D01*
X152213571Y-112458571D01*
X152213571Y-112101429D01*
X152285000Y-111887143D01*
X152213571Y-111387143D02*
X153713571Y-111030000D01*
X152642143Y-110744286D01*
X153713571Y-110458572D01*
X152213571Y-110101429D01*
X153713571Y-109530000D02*
X152213571Y-109530000D01*
X152213571Y-109172857D01*
X152285000Y-108958572D01*
X152427857Y-108815714D01*
X152570714Y-108744286D01*
X152856429Y-108672857D01*
X153070714Y-108672857D01*
X153356429Y-108744286D01*
X153499286Y-108815714D01*
X153642143Y-108958572D01*
X153713571Y-109172857D01*
X153713571Y-109530000D01*
D12*
X137100000Y-108150000D02*
X137100000Y-108850000D01*
X135900000Y-108850000D02*
X135900000Y-108150000D01*
X135900000Y-112350000D02*
X135900000Y-111650000D01*
X137100000Y-111650000D02*
X137100000Y-112350000D01*
X122650000Y-111400000D02*
X123350000Y-111400000D01*
X123350000Y-112600000D02*
X122650000Y-112600000D01*
X130810000Y-102870000D02*
X133350000Y-102870000D01*
X127990000Y-102590000D02*
X129540000Y-102590000D01*
X130810000Y-102870000D02*
X130810000Y-105410000D01*
X129540000Y-105690000D02*
X127990000Y-105690000D01*
X127990000Y-105690000D02*
X127990000Y-102590000D01*
X130810000Y-105410000D02*
X133350000Y-105410000D01*
X133350000Y-105410000D02*
X133350000Y-102870000D01*
X119380000Y-120650000D02*
X149860000Y-120650000D01*
X149860000Y-120650000D02*
X149860000Y-118110000D01*
X149860000Y-118110000D02*
X119380000Y-118110000D01*
X116560000Y-117830000D02*
X118110000Y-117830000D01*
X119380000Y-118110000D02*
X119380000Y-120650000D01*
X118110000Y-120930000D02*
X116560000Y-120930000D01*
X116560000Y-120930000D02*
X116560000Y-117830000D01*
X117120000Y-117830000D02*
X117120000Y-119380000D01*
X114020000Y-119380000D02*
X114020000Y-117830000D01*
X114020000Y-117830000D02*
X117120000Y-117830000D01*
X114300000Y-120650000D02*
X116840000Y-120650000D01*
X138430000Y-105410000D02*
X135890000Y-105410000D01*
X141250000Y-105690000D02*
X139700000Y-105690000D01*
X138430000Y-105410000D02*
X138430000Y-102870000D01*
X139700000Y-102590000D02*
X141250000Y-102590000D01*
X141250000Y-102590000D02*
X141250000Y-105690000D01*
X138430000Y-102870000D02*
X135890000Y-102870000D01*
X135890000Y-102870000D02*
X135890000Y-105410000D01*
X116840000Y-105410000D02*
X116840000Y-107950000D01*
X117120000Y-102590000D02*
X117120000Y-104140000D01*
X116840000Y-105410000D02*
X114300000Y-105410000D01*
X114020000Y-104140000D02*
X114020000Y-102590000D01*
X114020000Y-102590000D02*
X117120000Y-102590000D01*
X114300000Y-105410000D02*
X114300000Y-107950000D01*
X114300000Y-107950000D02*
X116840000Y-107950000D01*
X152400000Y-120650000D02*
X157480000Y-120650000D01*
X157480000Y-120650000D02*
X157480000Y-118110000D01*
X157480000Y-118110000D02*
X152400000Y-118110000D01*
X149580000Y-117830000D02*
X151130000Y-117830000D01*
X152400000Y-118110000D02*
X152400000Y-120650000D01*
X151130000Y-120930000D02*
X149580000Y-120930000D01*
X149580000Y-120930000D02*
X149580000Y-117830000D01*
X157480000Y-110490000D02*
X157480000Y-102870000D01*
X154940000Y-110490000D02*
X154940000Y-102870000D01*
X154660000Y-113310000D02*
X154660000Y-111760000D01*
X157480000Y-102870000D02*
X154940000Y-102870000D01*
X154940000Y-110490000D02*
X157480000Y-110490000D01*
X157760000Y-111760000D02*
X157760000Y-113310000D01*
X157760000Y-113310000D02*
X154660000Y-113310000D01*
X148590000Y-110490000D02*
X148590000Y-102870000D01*
X146050000Y-110490000D02*
X146050000Y-102870000D01*
X145770000Y-113310000D02*
X145770000Y-111760000D01*
X148590000Y-102870000D02*
X146050000Y-102870000D01*
X146050000Y-110490000D02*
X148590000Y-110490000D01*
X148870000Y-111760000D02*
X148870000Y-113310000D01*
X148870000Y-113310000D02*
X145770000Y-113310000D01*
X142825000Y-105000000D02*
X142825000Y-104000000D01*
X144175000Y-104000000D02*
X144175000Y-105000000D01*
X121825000Y-109500000D02*
X121825000Y-108500000D01*
X123175000Y-108500000D02*
X123175000Y-109500000D01*
X119850000Y-109250000D02*
X119850000Y-109350000D01*
X119850000Y-112750000D02*
X119850000Y-112650000D01*
X115150000Y-112650000D02*
X115150000Y-112750000D01*
X115150000Y-109250000D02*
X115150000Y-109350000D01*
X115150000Y-110650000D02*
X115150000Y-111350000D01*
X119850000Y-110650000D02*
X119850000Y-111350000D01*
X119850000Y-109250000D02*
X115150000Y-109250000D01*
X115150000Y-112750000D02*
X119850000Y-112750000D01*
X118400000Y-111000000D02*
G75*
G03X118400000Y-111000000I-900000J0D01*
G01*
D13*
X133950000Y-109400000D02*
G75*
G03X133950000Y-109400000I-200000J0D01*
G01*
X134400000Y-108800000D02*
X127600000Y-108800000D01*
X127600000Y-108800000D02*
X127600000Y-113200000D01*
X127600000Y-113200000D02*
X134400000Y-113200000D01*
X134400000Y-113200000D02*
X134400000Y-108800000D01*
D12*
X141000760Y-116449000D02*
X140599440Y-116649660D01*
X140599440Y-116649660D02*
X140000000Y-116751260D01*
X140000000Y-116751260D02*
X139499620Y-116649660D01*
X139499620Y-116649660D02*
X138801120Y-116250880D01*
X138801120Y-116250880D02*
X138399800Y-115648900D01*
X138399800Y-115648900D02*
X138199140Y-115049460D01*
X138199140Y-115049460D02*
X138199140Y-108450540D01*
X138199140Y-108450540D02*
X138399800Y-107749500D01*
X138399800Y-107749500D02*
X138699520Y-107350720D01*
X138699520Y-107350720D02*
X139199900Y-106949400D01*
X139199900Y-106949400D02*
X139799340Y-106748740D01*
X139799340Y-106748740D02*
X140299720Y-106748740D01*
X140299720Y-106748740D02*
X140800100Y-106949400D01*
X140800100Y-106949400D02*
X141399540Y-107449780D01*
X141399540Y-107449780D02*
X141699260Y-107950160D01*
X141699260Y-107950160D02*
X141800860Y-108450540D01*
X141800860Y-108549600D02*
X141800860Y-115151060D01*
X141800860Y-115151060D02*
X141699260Y-115549840D01*
X141699260Y-115549840D02*
X141399540Y-116050220D01*
X141399540Y-116050220D02*
X140899160Y-116550600D01*
X142329180Y-108559760D02*
X142280920Y-108100020D01*
X142280920Y-108100020D02*
X142169160Y-107701240D01*
X142169160Y-107701240D02*
X141950720Y-107269440D01*
X141950720Y-107269440D02*
X141719580Y-106979880D01*
X141719580Y-106979880D02*
X141369060Y-106649680D01*
X141369060Y-106649680D02*
X140830580Y-106360120D01*
X140830580Y-106360120D02*
X140231140Y-106230580D01*
X140231140Y-106230580D02*
X139720600Y-106230580D01*
X139720600Y-106230580D02*
X139019560Y-106400760D01*
X139019560Y-106400760D02*
X138430280Y-106799540D01*
X138430280Y-106799540D02*
X138059440Y-107259280D01*
X138059440Y-107259280D02*
X137851160Y-107680920D01*
X137851160Y-107680920D02*
X137691140Y-108130500D01*
X137691140Y-108130500D02*
X137660660Y-108569920D01*
X137879100Y-115910520D02*
X138100080Y-116288980D01*
X138100080Y-116288980D02*
X138379480Y-116609020D01*
X138379480Y-116609020D02*
X138709680Y-116860480D01*
X138709680Y-116860480D02*
X139260860Y-117160200D01*
X139260860Y-117160200D02*
X139730760Y-117269420D01*
X139730760Y-117269420D02*
X140190500Y-117289740D01*
X140190500Y-117289740D02*
X140650240Y-117200840D01*
X140650240Y-117200840D02*
X141099820Y-117010340D01*
X141099820Y-117010340D02*
X141569720Y-116649660D01*
X141569720Y-116649660D02*
X141889760Y-116299140D01*
X141889760Y-116299140D02*
X142120900Y-115910520D01*
X142120900Y-115910520D02*
X142260600Y-115481260D01*
X142260600Y-115481260D02*
X142329180Y-115039300D01*
X137670820Y-108549600D02*
X137670820Y-115001200D01*
X137670820Y-115001200D02*
X137708920Y-115420300D01*
X137708920Y-115420300D02*
X137879100Y-115910520D01*
X142329180Y-108549600D02*
X142329180Y-115001200D01*
D14*
G36*
X124729925Y-102258187D02*
X125106184Y-102261737D01*
X125169186Y-102600564D01*
X125188224Y-102699825D01*
X125206134Y-102787252D01*
X125222200Y-102859718D01*
X125235708Y-102914097D01*
X125245942Y-102947264D01*
X125250489Y-102955958D01*
X125269113Y-102966654D01*
X125307614Y-102984685D01*
X125361003Y-103008030D01*
X125424291Y-103034672D01*
X125492491Y-103062591D01*
X125560612Y-103089768D01*
X125623667Y-103114185D01*
X125676665Y-103133823D01*
X125714620Y-103146662D01*
X125731804Y-103150737D01*
X125748262Y-103143441D01*
X125783480Y-103122906D01*
X125834270Y-103091159D01*
X125897443Y-103050229D01*
X125969809Y-103002144D01*
X126036559Y-102956895D01*
X126114741Y-102904189D01*
X126186989Y-102856933D01*
X126250007Y-102817169D01*
X126300495Y-102786938D01*
X126335157Y-102768283D01*
X126349643Y-102763053D01*
X126367625Y-102770779D01*
X126399250Y-102794535D01*
X126445487Y-102835188D01*
X126507301Y-102893605D01*
X126585662Y-102970652D01*
X126622816Y-103007847D01*
X126688585Y-103074583D01*
X126747620Y-103135668D01*
X126797409Y-103188407D01*
X126835441Y-103230105D01*
X126859203Y-103258066D01*
X126866316Y-103269179D01*
X126859013Y-103284217D01*
X126838434Y-103318143D01*
X126806568Y-103367893D01*
X126765407Y-103430407D01*
X126716940Y-103502623D01*
X126665098Y-103578658D01*
X126463880Y-103871599D01*
X126572822Y-104125628D01*
X126612361Y-104215654D01*
X126646466Y-104288914D01*
X126674053Y-104343250D01*
X126694039Y-104376506D01*
X126703856Y-104386491D01*
X126722779Y-104390799D01*
X126764068Y-104399229D01*
X126823802Y-104411013D01*
X126898061Y-104425384D01*
X126982925Y-104441574D01*
X127043367Y-104452983D01*
X127132525Y-104469970D01*
X127213121Y-104485766D01*
X127281367Y-104499591D01*
X127333475Y-104510669D01*
X127365658Y-104518221D01*
X127374236Y-104520951D01*
X127378537Y-104536953D01*
X127382075Y-104578214D01*
X127384796Y-104643265D01*
X127386649Y-104730637D01*
X127387580Y-104838862D01*
X127387684Y-104895042D01*
X127387684Y-105260823D01*
X127350921Y-105268346D01*
X127326644Y-105273038D01*
X127280799Y-105281652D01*
X127218117Y-105293307D01*
X127143332Y-105307125D01*
X127061177Y-105322225D01*
X127053473Y-105323637D01*
X126969939Y-105339130D01*
X126892471Y-105353843D01*
X126826051Y-105366803D01*
X126775657Y-105377037D01*
X126746270Y-105383574D01*
X126745192Y-105383851D01*
X126729036Y-105388635D01*
X126715553Y-105395720D01*
X126702903Y-105408409D01*
X126689247Y-105430006D01*
X126672746Y-105463814D01*
X126651561Y-105513136D01*
X126623851Y-105581276D01*
X126594798Y-105653945D01*
X126563896Y-105732237D01*
X126536713Y-105802718D01*
X126514732Y-105861402D01*
X126499442Y-105904304D01*
X126492327Y-105927438D01*
X126492000Y-105929705D01*
X126499294Y-105945518D01*
X126519738Y-105979888D01*
X126551177Y-106029451D01*
X126591454Y-106090843D01*
X126638413Y-106160700D01*
X126664823Y-106199351D01*
X126725936Y-106288364D01*
X126773452Y-106358020D01*
X126808914Y-106411001D01*
X126833860Y-106449990D01*
X126849831Y-106477670D01*
X126858367Y-106496724D01*
X126861009Y-106509835D01*
X126859295Y-106519686D01*
X126854767Y-106528958D01*
X126854412Y-106529605D01*
X126841679Y-106545154D01*
X126812597Y-106576623D01*
X126769890Y-106621193D01*
X126716283Y-106676047D01*
X126654500Y-106738367D01*
X126600707Y-106792013D01*
X126514752Y-106876305D01*
X126446292Y-106941193D01*
X126394868Y-106987085D01*
X126360019Y-107014389D01*
X126341286Y-107023511D01*
X126339573Y-107023247D01*
X126323109Y-107013690D01*
X126288063Y-106991159D01*
X126237831Y-106957914D01*
X126175806Y-106916210D01*
X126105382Y-106868306D01*
X126065353Y-106840859D01*
X125991932Y-106790615D01*
X125925200Y-106745399D01*
X125868525Y-106707459D01*
X125825275Y-106679038D01*
X125798820Y-106662384D01*
X125792706Y-106659075D01*
X125773875Y-106662206D01*
X125737571Y-106676280D01*
X125689483Y-106698881D01*
X125648398Y-106720361D01*
X125581292Y-106754978D01*
X125534889Y-106774297D01*
X125508232Y-106778695D01*
X125504014Y-106777207D01*
X125494653Y-106762448D01*
X125476700Y-106725919D01*
X125451392Y-106670609D01*
X125419966Y-106599506D01*
X125383660Y-106515601D01*
X125343711Y-106421881D01*
X125301355Y-106321335D01*
X125257831Y-106216952D01*
X125214376Y-106111722D01*
X125172226Y-106008632D01*
X125132619Y-105910672D01*
X125096793Y-105820831D01*
X125065984Y-105742097D01*
X125041430Y-105677460D01*
X125024368Y-105629907D01*
X125016035Y-105602429D01*
X125015526Y-105597158D01*
X125029813Y-105579984D01*
X125060291Y-105555007D01*
X125096270Y-105530316D01*
X125163337Y-105480356D01*
X125233060Y-105415776D01*
X125298542Y-105343986D01*
X125352891Y-105272392D01*
X125382402Y-105222879D01*
X125432312Y-105096745D01*
X125457345Y-104969096D01*
X125459058Y-104842449D01*
X125439004Y-104719323D01*
X125398738Y-104602237D01*
X125339815Y-104493708D01*
X125263789Y-104396255D01*
X125172216Y-104312396D01*
X125066651Y-104244650D01*
X124948647Y-104195534D01*
X124819760Y-104167566D01*
X124727368Y-104161914D01*
X124591815Y-104174168D01*
X124466146Y-104209256D01*
X124351910Y-104264666D01*
X124250661Y-104337886D01*
X124163948Y-104426404D01*
X124093324Y-104527707D01*
X124040339Y-104639284D01*
X124006545Y-104758622D01*
X123993493Y-104883210D01*
X124002735Y-105010535D01*
X124035822Y-105138085D01*
X124072265Y-105222742D01*
X124114227Y-105290353D01*
X124172516Y-105363491D01*
X124240130Y-105434617D01*
X124310070Y-105496192D01*
X124357836Y-105530316D01*
X124397220Y-105557388D01*
X124426687Y-105581861D01*
X124439100Y-105597158D01*
X124435602Y-105613496D01*
X124422758Y-105651398D01*
X124401804Y-105707877D01*
X124373979Y-105779943D01*
X124340518Y-105864609D01*
X124302658Y-105958885D01*
X124261637Y-106059783D01*
X124218691Y-106164314D01*
X124175057Y-106269490D01*
X124131972Y-106372323D01*
X124090673Y-106469823D01*
X124052396Y-106559002D01*
X124018379Y-106636872D01*
X123989858Y-106700444D01*
X123968071Y-106746730D01*
X123954253Y-106772741D01*
X123950722Y-106777207D01*
X123929684Y-106777120D01*
X123889180Y-106762223D01*
X123828255Y-106732139D01*
X123806338Y-106720361D01*
X123753085Y-106692878D01*
X123707278Y-106672080D01*
X123674603Y-106660383D01*
X123662030Y-106659075D01*
X123646032Y-106668450D01*
X123611422Y-106690803D01*
X123561571Y-106723888D01*
X123499845Y-106765458D01*
X123429613Y-106813269D01*
X123389384Y-106840859D01*
X123315852Y-106891159D01*
X123248898Y-106936469D01*
X123191916Y-106974531D01*
X123148300Y-107003089D01*
X123121445Y-107019885D01*
X123115132Y-107023259D01*
X123099640Y-107017492D01*
X123068359Y-106993927D01*
X123020781Y-106952111D01*
X122956397Y-106891591D01*
X122874701Y-106811914D01*
X122841624Y-106779119D01*
X122774331Y-106711539D01*
X122713766Y-106649514D01*
X122662409Y-106595685D01*
X122622745Y-106552691D01*
X122597256Y-106523174D01*
X122588421Y-106509851D01*
X122595721Y-106494442D01*
X122616243Y-106460301D01*
X122647919Y-106410631D01*
X122688678Y-106348633D01*
X122736453Y-106277508D01*
X122775579Y-106220196D01*
X122827264Y-106144286D01*
X122873479Y-106075051D01*
X122912155Y-106015706D01*
X122941221Y-105969462D01*
X122958607Y-105939532D01*
X122962737Y-105929736D01*
X122957962Y-105912317D01*
X122944631Y-105874105D01*
X122924228Y-105819089D01*
X122898239Y-105751253D01*
X122868150Y-105674585D01*
X122859939Y-105653945D01*
X122825466Y-105567805D01*
X122799032Y-105503204D01*
X122778797Y-105456839D01*
X122762923Y-105425406D01*
X122749570Y-105405599D01*
X122736897Y-105394114D01*
X122723066Y-105387647D01*
X122709544Y-105383763D01*
X122687212Y-105378821D01*
X122644281Y-105370111D01*
X122585261Y-105358489D01*
X122514668Y-105344809D01*
X122437014Y-105329927D01*
X122356813Y-105314699D01*
X122278578Y-105299980D01*
X122206822Y-105286626D01*
X122146058Y-105275492D01*
X122100801Y-105267434D01*
X122075563Y-105263307D01*
X122072163Y-105262947D01*
X122069621Y-105250274D01*
X122067786Y-105215017D01*
X122066612Y-105161315D01*
X122066052Y-105093312D01*
X122066059Y-105015148D01*
X122066588Y-104930964D01*
X122067592Y-104844902D01*
X122069023Y-104761103D01*
X122070837Y-104683709D01*
X122072985Y-104616861D01*
X122075422Y-104564700D01*
X122078101Y-104531367D01*
X122080500Y-104520951D01*
X122096922Y-104516249D01*
X122135853Y-104507492D01*
X122193504Y-104495455D01*
X122266088Y-104480919D01*
X122349817Y-104464660D01*
X122411369Y-104452983D01*
X122501119Y-104436007D01*
X122582874Y-104420340D01*
X122652714Y-104406748D01*
X122706718Y-104395999D01*
X122740966Y-104388862D01*
X122750881Y-104386491D01*
X122763974Y-104371737D01*
X122785538Y-104334169D01*
X122814492Y-104275944D01*
X122849750Y-104199219D01*
X122881914Y-104125628D01*
X122990857Y-103871599D01*
X122789639Y-103578658D01*
X122736009Y-103499981D01*
X122687763Y-103428052D01*
X122646892Y-103365930D01*
X122615385Y-103316679D01*
X122595234Y-103283359D01*
X122588421Y-103269179D01*
X122597501Y-103255584D01*
X122623068Y-103225871D01*
X122662610Y-103182738D01*
X122713615Y-103128879D01*
X122773570Y-103066991D01*
X122831920Y-103007847D01*
X122915401Y-102924763D01*
X122982198Y-102860233D01*
X123033647Y-102813062D01*
X123071089Y-102782055D01*
X123095860Y-102766018D01*
X123106026Y-102763053D01*
X123125885Y-102770550D01*
X123164471Y-102791809D01*
X123218804Y-102824979D01*
X123285906Y-102868210D01*
X123362797Y-102919652D01*
X123407290Y-102950158D01*
X123483712Y-103002495D01*
X123554225Y-103049854D01*
X123615435Y-103090028D01*
X123663947Y-103120813D01*
X123696369Y-103140005D01*
X123707737Y-103145377D01*
X123728374Y-103142902D01*
X123768635Y-103131730D01*
X123823587Y-103113741D01*
X123888299Y-103090814D01*
X123957839Y-103064831D01*
X124027276Y-103037670D01*
X124091677Y-103011212D01*
X124146110Y-102987338D01*
X124185644Y-102967926D01*
X124204006Y-102956199D01*
X124211655Y-102938650D01*
X124223019Y-102898378D01*
X124237257Y-102839007D01*
X124253524Y-102764160D01*
X124270977Y-102677460D01*
X124280495Y-102627543D01*
X124297330Y-102537924D01*
X124312897Y-102455761D01*
X124326410Y-102385146D01*
X124337082Y-102330169D01*
X124344129Y-102294923D01*
X124346295Y-102284924D01*
X124353666Y-102254638D01*
X124729925Y-102258187D01*
X124729925Y-102258187D01*
G37*
X124729925Y-102258187D02*
X125106184Y-102261737D01*
X125169186Y-102600564D01*
X125188224Y-102699825D01*
X125206134Y-102787252D01*
X125222200Y-102859718D01*
X125235708Y-102914097D01*
X125245942Y-102947264D01*
X125250489Y-102955958D01*
X125269113Y-102966654D01*
X125307614Y-102984685D01*
X125361003Y-103008030D01*
X125424291Y-103034672D01*
X125492491Y-103062591D01*
X125560612Y-103089768D01*
X125623667Y-103114185D01*
X125676665Y-103133823D01*
X125714620Y-103146662D01*
X125731804Y-103150737D01*
X125748262Y-103143441D01*
X125783480Y-103122906D01*
X125834270Y-103091159D01*
X125897443Y-103050229D01*
X125969809Y-103002144D01*
X126036559Y-102956895D01*
X126114741Y-102904189D01*
X126186989Y-102856933D01*
X126250007Y-102817169D01*
X126300495Y-102786938D01*
X126335157Y-102768283D01*
X126349643Y-102763053D01*
X126367625Y-102770779D01*
X126399250Y-102794535D01*
X126445487Y-102835188D01*
X126507301Y-102893605D01*
X126585662Y-102970652D01*
X126622816Y-103007847D01*
X126688585Y-103074583D01*
X126747620Y-103135668D01*
X126797409Y-103188407D01*
X126835441Y-103230105D01*
X126859203Y-103258066D01*
X126866316Y-103269179D01*
X126859013Y-103284217D01*
X126838434Y-103318143D01*
X126806568Y-103367893D01*
X126765407Y-103430407D01*
X126716940Y-103502623D01*
X126665098Y-103578658D01*
X126463880Y-103871599D01*
X126572822Y-104125628D01*
X126612361Y-104215654D01*
X126646466Y-104288914D01*
X126674053Y-104343250D01*
X126694039Y-104376506D01*
X126703856Y-104386491D01*
X126722779Y-104390799D01*
X126764068Y-104399229D01*
X126823802Y-104411013D01*
X126898061Y-104425384D01*
X126982925Y-104441574D01*
X127043367Y-104452983D01*
X127132525Y-104469970D01*
X127213121Y-104485766D01*
X127281367Y-104499591D01*
X127333475Y-104510669D01*
X127365658Y-104518221D01*
X127374236Y-104520951D01*
X127378537Y-104536953D01*
X127382075Y-104578214D01*
X127384796Y-104643265D01*
X127386649Y-104730637D01*
X127387580Y-104838862D01*
X127387684Y-104895042D01*
X127387684Y-105260823D01*
X127350921Y-105268346D01*
X127326644Y-105273038D01*
X127280799Y-105281652D01*
X127218117Y-105293307D01*
X127143332Y-105307125D01*
X127061177Y-105322225D01*
X127053473Y-105323637D01*
X126969939Y-105339130D01*
X126892471Y-105353843D01*
X126826051Y-105366803D01*
X126775657Y-105377037D01*
X126746270Y-105383574D01*
X126745192Y-105383851D01*
X126729036Y-105388635D01*
X126715553Y-105395720D01*
X126702903Y-105408409D01*
X126689247Y-105430006D01*
X126672746Y-105463814D01*
X126651561Y-105513136D01*
X126623851Y-105581276D01*
X126594798Y-105653945D01*
X126563896Y-105732237D01*
X126536713Y-105802718D01*
X126514732Y-105861402D01*
X126499442Y-105904304D01*
X126492327Y-105927438D01*
X126492000Y-105929705D01*
X126499294Y-105945518D01*
X126519738Y-105979888D01*
X126551177Y-106029451D01*
X126591454Y-106090843D01*
X126638413Y-106160700D01*
X126664823Y-106199351D01*
X126725936Y-106288364D01*
X126773452Y-106358020D01*
X126808914Y-106411001D01*
X126833860Y-106449990D01*
X126849831Y-106477670D01*
X126858367Y-106496724D01*
X126861009Y-106509835D01*
X126859295Y-106519686D01*
X126854767Y-106528958D01*
X126854412Y-106529605D01*
X126841679Y-106545154D01*
X126812597Y-106576623D01*
X126769890Y-106621193D01*
X126716283Y-106676047D01*
X126654500Y-106738367D01*
X126600707Y-106792013D01*
X126514752Y-106876305D01*
X126446292Y-106941193D01*
X126394868Y-106987085D01*
X126360019Y-107014389D01*
X126341286Y-107023511D01*
X126339573Y-107023247D01*
X126323109Y-107013690D01*
X126288063Y-106991159D01*
X126237831Y-106957914D01*
X126175806Y-106916210D01*
X126105382Y-106868306D01*
X126065353Y-106840859D01*
X125991932Y-106790615D01*
X125925200Y-106745399D01*
X125868525Y-106707459D01*
X125825275Y-106679038D01*
X125798820Y-106662384D01*
X125792706Y-106659075D01*
X125773875Y-106662206D01*
X125737571Y-106676280D01*
X125689483Y-106698881D01*
X125648398Y-106720361D01*
X125581292Y-106754978D01*
X125534889Y-106774297D01*
X125508232Y-106778695D01*
X125504014Y-106777207D01*
X125494653Y-106762448D01*
X125476700Y-106725919D01*
X125451392Y-106670609D01*
X125419966Y-106599506D01*
X125383660Y-106515601D01*
X125343711Y-106421881D01*
X125301355Y-106321335D01*
X125257831Y-106216952D01*
X125214376Y-106111722D01*
X125172226Y-106008632D01*
X125132619Y-105910672D01*
X125096793Y-105820831D01*
X125065984Y-105742097D01*
X125041430Y-105677460D01*
X125024368Y-105629907D01*
X125016035Y-105602429D01*
X125015526Y-105597158D01*
X125029813Y-105579984D01*
X125060291Y-105555007D01*
X125096270Y-105530316D01*
X125163337Y-105480356D01*
X125233060Y-105415776D01*
X125298542Y-105343986D01*
X125352891Y-105272392D01*
X125382402Y-105222879D01*
X125432312Y-105096745D01*
X125457345Y-104969096D01*
X125459058Y-104842449D01*
X125439004Y-104719323D01*
X125398738Y-104602237D01*
X125339815Y-104493708D01*
X125263789Y-104396255D01*
X125172216Y-104312396D01*
X125066651Y-104244650D01*
X124948647Y-104195534D01*
X124819760Y-104167566D01*
X124727368Y-104161914D01*
X124591815Y-104174168D01*
X124466146Y-104209256D01*
X124351910Y-104264666D01*
X124250661Y-104337886D01*
X124163948Y-104426404D01*
X124093324Y-104527707D01*
X124040339Y-104639284D01*
X124006545Y-104758622D01*
X123993493Y-104883210D01*
X124002735Y-105010535D01*
X124035822Y-105138085D01*
X124072265Y-105222742D01*
X124114227Y-105290353D01*
X124172516Y-105363491D01*
X124240130Y-105434617D01*
X124310070Y-105496192D01*
X124357836Y-105530316D01*
X124397220Y-105557388D01*
X124426687Y-105581861D01*
X124439100Y-105597158D01*
X124435602Y-105613496D01*
X124422758Y-105651398D01*
X124401804Y-105707877D01*
X124373979Y-105779943D01*
X124340518Y-105864609D01*
X124302658Y-105958885D01*
X124261637Y-106059783D01*
X124218691Y-106164314D01*
X124175057Y-106269490D01*
X124131972Y-106372323D01*
X124090673Y-106469823D01*
X124052396Y-106559002D01*
X124018379Y-106636872D01*
X123989858Y-106700444D01*
X123968071Y-106746730D01*
X123954253Y-106772741D01*
X123950722Y-106777207D01*
X123929684Y-106777120D01*
X123889180Y-106762223D01*
X123828255Y-106732139D01*
X123806338Y-106720361D01*
X123753085Y-106692878D01*
X123707278Y-106672080D01*
X123674603Y-106660383D01*
X123662030Y-106659075D01*
X123646032Y-106668450D01*
X123611422Y-106690803D01*
X123561571Y-106723888D01*
X123499845Y-106765458D01*
X123429613Y-106813269D01*
X123389384Y-106840859D01*
X123315852Y-106891159D01*
X123248898Y-106936469D01*
X123191916Y-106974531D01*
X123148300Y-107003089D01*
X123121445Y-107019885D01*
X123115132Y-107023259D01*
X123099640Y-107017492D01*
X123068359Y-106993927D01*
X123020781Y-106952111D01*
X122956397Y-106891591D01*
X122874701Y-106811914D01*
X122841624Y-106779119D01*
X122774331Y-106711539D01*
X122713766Y-106649514D01*
X122662409Y-106595685D01*
X122622745Y-106552691D01*
X122597256Y-106523174D01*
X122588421Y-106509851D01*
X122595721Y-106494442D01*
X122616243Y-106460301D01*
X122647919Y-106410631D01*
X122688678Y-106348633D01*
X122736453Y-106277508D01*
X122775579Y-106220196D01*
X122827264Y-106144286D01*
X122873479Y-106075051D01*
X122912155Y-106015706D01*
X122941221Y-105969462D01*
X122958607Y-105939532D01*
X122962737Y-105929736D01*
X122957962Y-105912317D01*
X122944631Y-105874105D01*
X122924228Y-105819089D01*
X122898239Y-105751253D01*
X122868150Y-105674585D01*
X122859939Y-105653945D01*
X122825466Y-105567805D01*
X122799032Y-105503204D01*
X122778797Y-105456839D01*
X122762923Y-105425406D01*
X122749570Y-105405599D01*
X122736897Y-105394114D01*
X122723066Y-105387647D01*
X122709544Y-105383763D01*
X122687212Y-105378821D01*
X122644281Y-105370111D01*
X122585261Y-105358489D01*
X122514668Y-105344809D01*
X122437014Y-105329927D01*
X122356813Y-105314699D01*
X122278578Y-105299980D01*
X122206822Y-105286626D01*
X122146058Y-105275492D01*
X122100801Y-105267434D01*
X122075563Y-105263307D01*
X122072163Y-105262947D01*
X122069621Y-105250274D01*
X122067786Y-105215017D01*
X122066612Y-105161315D01*
X122066052Y-105093312D01*
X122066059Y-105015148D01*
X122066588Y-104930964D01*
X122067592Y-104844902D01*
X122069023Y-104761103D01*
X122070837Y-104683709D01*
X122072985Y-104616861D01*
X122075422Y-104564700D01*
X122078101Y-104531367D01*
X122080500Y-104520951D01*
X122096922Y-104516249D01*
X122135853Y-104507492D01*
X122193504Y-104495455D01*
X122266088Y-104480919D01*
X122349817Y-104464660D01*
X122411369Y-104452983D01*
X122501119Y-104436007D01*
X122582874Y-104420340D01*
X122652714Y-104406748D01*
X122706718Y-104395999D01*
X122740966Y-104388862D01*
X122750881Y-104386491D01*
X122763974Y-104371737D01*
X122785538Y-104334169D01*
X122814492Y-104275944D01*
X122849750Y-104199219D01*
X122881914Y-104125628D01*
X122990857Y-103871599D01*
X122789639Y-103578658D01*
X122736009Y-103499981D01*
X122687763Y-103428052D01*
X122646892Y-103365930D01*
X122615385Y-103316679D01*
X122595234Y-103283359D01*
X122588421Y-103269179D01*
X122597501Y-103255584D01*
X122623068Y-103225871D01*
X122662610Y-103182738D01*
X122713615Y-103128879D01*
X122773570Y-103066991D01*
X122831920Y-103007847D01*
X122915401Y-102924763D01*
X122982198Y-102860233D01*
X123033647Y-102813062D01*
X123071089Y-102782055D01*
X123095860Y-102766018D01*
X123106026Y-102763053D01*
X123125885Y-102770550D01*
X123164471Y-102791809D01*
X123218804Y-102824979D01*
X123285906Y-102868210D01*
X123362797Y-102919652D01*
X123407290Y-102950158D01*
X123483712Y-103002495D01*
X123554225Y-103049854D01*
X123615435Y-103090028D01*
X123663947Y-103120813D01*
X123696369Y-103140005D01*
X123707737Y-103145377D01*
X123728374Y-103142902D01*
X123768635Y-103131730D01*
X123823587Y-103113741D01*
X123888299Y-103090814D01*
X123957839Y-103064831D01*
X124027276Y-103037670D01*
X124091677Y-103011212D01*
X124146110Y-102987338D01*
X124185644Y-102967926D01*
X124204006Y-102956199D01*
X124211655Y-102938650D01*
X124223019Y-102898378D01*
X124237257Y-102839007D01*
X124253524Y-102764160D01*
X124270977Y-102677460D01*
X124280495Y-102627543D01*
X124297330Y-102537924D01*
X124312897Y-102455761D01*
X124326410Y-102385146D01*
X124337082Y-102330169D01*
X124344129Y-102294923D01*
X124346295Y-102284924D01*
X124353666Y-102254638D01*
X124729925Y-102258187D01*
M02*
