G04 #@! TF.FileFunction,Copper,L2,Bot,Signal*
%FSLAX46Y46*%
G04 Gerber Fmt 4.6, Leading zero omitted, Abs format (unit mm)*
G04 Created by KiCad (PCBNEW 0.201510100348+6257~30~ubuntu14.04.1-product) date jeu. 15 oct. 2015 23:40:22 CEST*
%MOMM*%
G01*
G04 APERTURE LIST*
%ADD10C,0.100000*%
%ADD11R,2.032000X2.032000*%
%ADD12O,2.032000X2.032000*%
%ADD13R,1.727200X2.032000*%
%ADD14O,1.727200X2.032000*%
%ADD15R,2.235200X2.235200*%
%ADD16R,2.032000X1.727200*%
%ADD17O,2.032000X1.727200*%
%ADD18R,1.450000X0.700000*%
%ADD19C,3.000000*%
%ADD20C,1.501140*%
%ADD21C,0.600000*%
%ADD22C,0.350000*%
%ADD23C,0.250000*%
%ADD24C,0.254000*%
G04 APERTURE END LIST*
D10*
D11*
X129540000Y-104140000D03*
D12*
X132080000Y-104140000D03*
D13*
X118110000Y-119380000D03*
D14*
X120650000Y-119380000D03*
X123190000Y-119380000D03*
X125730000Y-119380000D03*
X128270000Y-119380000D03*
X130810000Y-119380000D03*
X133350000Y-119380000D03*
X135890000Y-119380000D03*
X138430000Y-119380000D03*
X140970000Y-119380000D03*
X143510000Y-119380000D03*
X146050000Y-119380000D03*
X148590000Y-119380000D03*
D15*
X115570000Y-119380000D03*
D11*
X139700000Y-104140000D03*
D12*
X137160000Y-104140000D03*
D11*
X115570000Y-104140000D03*
D12*
X115570000Y-106680000D03*
D13*
X151130000Y-119380000D03*
D14*
X153670000Y-119380000D03*
X156210000Y-119380000D03*
D16*
X156210000Y-111760000D03*
D17*
X156210000Y-109220000D03*
X156210000Y-106680000D03*
X156210000Y-104140000D03*
D16*
X147320000Y-111760000D03*
D17*
X147320000Y-109220000D03*
X147320000Y-106680000D03*
X147320000Y-104140000D03*
D18*
X114925000Y-110000000D03*
X120075000Y-110000000D03*
X120075000Y-112000000D03*
X114925000Y-112000000D03*
D19*
X120000000Y-104000000D03*
X156000000Y-115500000D03*
X152000000Y-104000000D03*
X116000000Y-115500000D03*
D20*
X140000000Y-109309060D03*
X140000000Y-114190940D03*
D21*
X130250000Y-112000000D03*
X121000000Y-107000000D03*
X137500000Y-110500000D03*
X124000000Y-110500000D03*
X125500000Y-106000000D03*
X132250000Y-107000000D03*
X118000000Y-112000000D03*
X128500000Y-110000000D03*
X124000000Y-108500000D03*
X152000000Y-113500000D03*
X151500000Y-115500000D03*
X143000000Y-113500000D03*
X142500000Y-117500000D03*
X144000000Y-113500000D03*
X143500000Y-117000000D03*
X151000000Y-112500000D03*
X147000000Y-117500000D03*
X150000000Y-112500000D03*
X148750000Y-115750000D03*
D22*
X136500000Y-111250000D02*
X136750000Y-111250000D01*
X131000000Y-111250000D02*
X136500000Y-111250000D01*
X130250000Y-112000000D02*
X131000000Y-111250000D01*
X136750000Y-111250000D02*
X137500000Y-110500000D01*
X124000000Y-110500000D02*
X124500000Y-110500000D01*
X126000000Y-112000000D02*
X130250000Y-112000000D01*
X124500000Y-110500000D02*
X126000000Y-112000000D01*
D23*
X120500000Y-107500000D02*
X121000000Y-107000000D01*
X114925000Y-110000000D02*
X114925000Y-107325000D01*
X114925000Y-107325000D02*
X115570000Y-106680000D01*
X152500000Y-107000000D02*
X152500000Y-110500000D01*
D22*
X153500000Y-116670000D02*
X156210000Y-119380000D01*
X153500000Y-111500000D02*
X153500000Y-116670000D01*
D23*
X152500000Y-110500000D02*
X153500000Y-111500000D01*
X147320000Y-104140000D02*
X148140000Y-104140000D01*
X148140000Y-104140000D02*
X151000000Y-107000000D01*
X152500000Y-107000000D02*
X155360000Y-104140000D01*
X151000000Y-107000000D02*
X152500000Y-107000000D01*
X155360000Y-104140000D02*
X156210000Y-104140000D01*
X137160000Y-104140000D02*
X137160000Y-104660000D01*
X137160000Y-104660000D02*
X139000000Y-106500000D01*
X145860000Y-104140000D02*
X147320000Y-104140000D01*
X143500000Y-106500000D02*
X145860000Y-104140000D01*
X139000000Y-106500000D02*
X143500000Y-106500000D01*
X137500000Y-110500000D02*
X137500000Y-103980000D01*
X137500000Y-104480000D02*
X137160000Y-104140000D01*
X121500000Y-111000000D02*
X123500000Y-111000000D01*
X123500000Y-111000000D02*
X124000000Y-110500000D01*
X115570000Y-119380000D02*
X115570000Y-118930000D01*
D22*
X115570000Y-118930000D02*
X117000000Y-117500000D01*
D23*
X117000000Y-117500000D02*
X118000000Y-117500000D01*
X118000000Y-117500000D02*
X121500000Y-114000000D01*
X121500000Y-114000000D02*
X121500000Y-111000000D01*
X121500000Y-111000000D02*
X121500000Y-108500000D01*
X121500000Y-108500000D02*
X120500000Y-107500000D01*
X120500000Y-107500000D02*
X119680000Y-106680000D01*
X119680000Y-106680000D02*
X115570000Y-106680000D01*
X120075000Y-110000000D02*
X114925000Y-110000000D01*
X125500000Y-106000000D02*
X128500000Y-106000000D01*
X128500000Y-106000000D02*
X129000000Y-106500000D01*
X129000000Y-106500000D02*
X131750000Y-106500000D01*
X132250000Y-107000000D02*
X131750000Y-106500000D01*
X118000000Y-112000000D02*
X120075000Y-112000000D01*
X120075000Y-112000000D02*
X114925000Y-112000000D01*
X125500000Y-110000000D02*
X128500000Y-110000000D01*
X124000000Y-108500000D02*
X125500000Y-110000000D01*
D22*
X152000000Y-115000000D02*
X151500000Y-115500000D01*
X152000000Y-115000000D02*
X152000000Y-113500000D01*
D23*
X142500000Y-117500000D02*
X142500000Y-116500000D01*
X143000000Y-116000000D02*
X143000000Y-113500000D01*
X142500000Y-116500000D02*
X143000000Y-116000000D01*
X144000000Y-113500000D02*
X144000000Y-116500000D01*
X144000000Y-116500000D02*
X143500000Y-117000000D01*
X143500000Y-117000000D02*
X143500000Y-117000000D01*
X151000000Y-114500000D02*
X151000000Y-112500000D01*
X149000000Y-116500000D02*
X151000000Y-114500000D01*
X148000000Y-116500000D02*
X149000000Y-116500000D01*
X147000000Y-117500000D02*
X148000000Y-116500000D01*
X150000000Y-114500000D02*
X150000000Y-112500000D01*
X148750000Y-115750000D02*
X150000000Y-114500000D01*
D24*
G36*
X115697000Y-119253000D02*
X115717000Y-119253000D01*
X115717000Y-119507000D01*
X115697000Y-119507000D01*
X115697000Y-119527000D01*
X115443000Y-119527000D01*
X115443000Y-119507000D01*
X115423000Y-119507000D01*
X115423000Y-119253000D01*
X115443000Y-119253000D01*
X115443000Y-119233000D01*
X115697000Y-119233000D01*
X115697000Y-119253000D01*
X115697000Y-119253000D01*
G37*
X115697000Y-119253000D02*
X115717000Y-119253000D01*
X115717000Y-119507000D01*
X115697000Y-119507000D01*
X115697000Y-119527000D01*
X115443000Y-119527000D01*
X115443000Y-119507000D01*
X115423000Y-119507000D01*
X115423000Y-119253000D01*
X115443000Y-119253000D01*
X115443000Y-119233000D01*
X115697000Y-119233000D01*
X115697000Y-119253000D01*
G36*
X118191091Y-102789041D02*
X117865372Y-103573459D01*
X117864630Y-104422815D01*
X118188980Y-105207800D01*
X118789041Y-105808909D01*
X119573459Y-106134628D01*
X120422815Y-106135370D01*
X121207800Y-105811020D01*
X121808909Y-105210959D01*
X122134628Y-104426541D01*
X122135370Y-103577185D01*
X121811020Y-102792200D01*
X121728963Y-102710000D01*
X128038334Y-102710000D01*
X127927569Y-102872110D01*
X127876560Y-103124000D01*
X127876560Y-105156000D01*
X127892366Y-105240000D01*
X126062463Y-105240000D01*
X126030327Y-105207808D01*
X125686799Y-105065162D01*
X125314833Y-105064838D01*
X124971057Y-105206883D01*
X124707808Y-105469673D01*
X124565162Y-105813201D01*
X124564838Y-106185167D01*
X124706883Y-106528943D01*
X124969673Y-106792192D01*
X125313201Y-106934838D01*
X125685167Y-106935162D01*
X126028943Y-106793117D01*
X126062118Y-106760000D01*
X128185198Y-106760000D01*
X128462599Y-107037401D01*
X128709161Y-107202148D01*
X129000000Y-107260000D01*
X131345758Y-107260000D01*
X131456883Y-107528943D01*
X131719673Y-107792192D01*
X132063201Y-107934838D01*
X132435167Y-107935162D01*
X132778943Y-107793117D01*
X133042192Y-107530327D01*
X133184838Y-107186799D01*
X133185162Y-106814833D01*
X133129451Y-106680000D01*
X145636655Y-106680000D01*
X145750729Y-107253489D01*
X146075585Y-107739670D01*
X146390366Y-107950000D01*
X146075585Y-108160330D01*
X145750729Y-108646511D01*
X145636655Y-109220000D01*
X145750729Y-109793489D01*
X146075585Y-110279670D01*
X146089913Y-110289243D01*
X146068683Y-110293238D01*
X145852559Y-110432310D01*
X145707569Y-110644510D01*
X145656560Y-110896400D01*
X145656560Y-112623600D01*
X145700838Y-112858917D01*
X145839910Y-113075041D01*
X146052110Y-113220031D01*
X146304000Y-113271040D01*
X148336000Y-113271040D01*
X148571317Y-113226762D01*
X148787441Y-113087690D01*
X148932431Y-112875490D01*
X148983440Y-112623600D01*
X148983440Y-110896400D01*
X148939162Y-110661083D01*
X148800090Y-110444959D01*
X148587890Y-110299969D01*
X148546561Y-110291600D01*
X148564415Y-110279670D01*
X148889271Y-109793489D01*
X149003345Y-109220000D01*
X148889271Y-108646511D01*
X148564415Y-108160330D01*
X148249634Y-107950000D01*
X148564415Y-107739670D01*
X148889271Y-107253489D01*
X149003345Y-106680000D01*
X148889271Y-106106511D01*
X148564415Y-105620330D01*
X148254931Y-105413539D01*
X148670732Y-105042036D01*
X148924709Y-104514791D01*
X148927358Y-104499026D01*
X148806217Y-104267000D01*
X147447000Y-104267000D01*
X147447000Y-104287000D01*
X147193000Y-104287000D01*
X147193000Y-104267000D01*
X145833783Y-104267000D01*
X145712642Y-104499026D01*
X145715291Y-104514791D01*
X145969268Y-105042036D01*
X146385069Y-105413539D01*
X146075585Y-105620330D01*
X145750729Y-106106511D01*
X145636655Y-106680000D01*
X133129451Y-106680000D01*
X133043117Y-106471057D01*
X132780327Y-106207808D01*
X132436799Y-106065162D01*
X132389923Y-106065121D01*
X132287401Y-105962599D01*
X132078565Y-105823060D01*
X132080000Y-105823345D01*
X132711810Y-105697670D01*
X133247433Y-105339778D01*
X133605325Y-104804155D01*
X133661261Y-104522946D01*
X135554017Y-104522946D01*
X135822812Y-105108379D01*
X136295182Y-105546385D01*
X136777056Y-105745975D01*
X137033000Y-105626836D01*
X137033000Y-104267000D01*
X135672633Y-104267000D01*
X135554017Y-104522946D01*
X133661261Y-104522946D01*
X133731000Y-104172345D01*
X133731000Y-104107655D01*
X133605325Y-103475845D01*
X133247433Y-102940222D01*
X132902882Y-102710000D01*
X136352196Y-102710000D01*
X136295182Y-102733615D01*
X135822812Y-103171621D01*
X135554017Y-103757054D01*
X135672633Y-104013000D01*
X137033000Y-104013000D01*
X137033000Y-103993000D01*
X137287000Y-103993000D01*
X137287000Y-104013000D01*
X137307000Y-104013000D01*
X137307000Y-104267000D01*
X137287000Y-104267000D01*
X137287000Y-105626836D01*
X137542944Y-105745975D01*
X138024818Y-105546385D01*
X138122398Y-105455903D01*
X138219910Y-105607441D01*
X138432110Y-105752431D01*
X138684000Y-105803440D01*
X140716000Y-105803440D01*
X140951317Y-105759162D01*
X141167441Y-105620090D01*
X141312431Y-105407890D01*
X141363440Y-105156000D01*
X141363440Y-103124000D01*
X141319162Y-102888683D01*
X141204183Y-102710000D01*
X146800327Y-102710000D01*
X146405680Y-102848046D01*
X145969268Y-103237964D01*
X145715291Y-103765209D01*
X145712642Y-103780974D01*
X145833783Y-104013000D01*
X147193000Y-104013000D01*
X147193000Y-103993000D01*
X147447000Y-103993000D01*
X147447000Y-104013000D01*
X148806217Y-104013000D01*
X148927358Y-103780974D01*
X148924709Y-103765209D01*
X148670732Y-103237964D01*
X148234320Y-102848046D01*
X147839673Y-102710000D01*
X150270270Y-102710000D01*
X150191091Y-102789041D01*
X149865372Y-103573459D01*
X149864630Y-104422815D01*
X150188980Y-105207800D01*
X150789041Y-105808909D01*
X151573459Y-106134628D01*
X152422815Y-106135370D01*
X153207800Y-105811020D01*
X153808909Y-105210959D01*
X154134628Y-104426541D01*
X154135370Y-103577185D01*
X153811020Y-102792200D01*
X153728963Y-102710000D01*
X155690327Y-102710000D01*
X155295680Y-102848046D01*
X154859268Y-103237964D01*
X154605291Y-103765209D01*
X154602642Y-103780974D01*
X154723783Y-104013000D01*
X156083000Y-104013000D01*
X156083000Y-103993000D01*
X156337000Y-103993000D01*
X156337000Y-104013000D01*
X156357000Y-104013000D01*
X156357000Y-104267000D01*
X156337000Y-104267000D01*
X156337000Y-104287000D01*
X156083000Y-104287000D01*
X156083000Y-104267000D01*
X154723783Y-104267000D01*
X154602642Y-104499026D01*
X154605291Y-104514791D01*
X154859268Y-105042036D01*
X155275069Y-105413539D01*
X154965585Y-105620330D01*
X154640729Y-106106511D01*
X154526655Y-106680000D01*
X154640729Y-107253489D01*
X154965585Y-107739670D01*
X155280366Y-107950000D01*
X154965585Y-108160330D01*
X154640729Y-108646511D01*
X154526655Y-109220000D01*
X154640729Y-109793489D01*
X154965585Y-110279670D01*
X154979913Y-110289243D01*
X154958683Y-110293238D01*
X154742559Y-110432310D01*
X154597569Y-110644510D01*
X154546560Y-110896400D01*
X154546560Y-112623600D01*
X154590838Y-112858917D01*
X154729910Y-113075041D01*
X154942110Y-113220031D01*
X155194000Y-113271040D01*
X157226000Y-113271040D01*
X157290000Y-113258998D01*
X157290000Y-113770270D01*
X157210959Y-113691091D01*
X156426541Y-113365372D01*
X155577185Y-113364630D01*
X154792200Y-113688980D01*
X154191091Y-114289041D01*
X153865372Y-115073459D01*
X153864630Y-115922815D01*
X154188980Y-116707800D01*
X154789041Y-117308909D01*
X155573459Y-117634628D01*
X156422815Y-117635370D01*
X157207800Y-117311020D01*
X157290000Y-117228963D01*
X157290000Y-118228453D01*
X157112036Y-118029268D01*
X156584791Y-117775291D01*
X156569026Y-117772642D01*
X156337000Y-117893783D01*
X156337000Y-119253000D01*
X156357000Y-119253000D01*
X156357000Y-119507000D01*
X156337000Y-119507000D01*
X156337000Y-119527000D01*
X156083000Y-119527000D01*
X156083000Y-119507000D01*
X156063000Y-119507000D01*
X156063000Y-119253000D01*
X156083000Y-119253000D01*
X156083000Y-117893783D01*
X155850974Y-117772642D01*
X155835209Y-117775291D01*
X155307964Y-118029268D01*
X154936461Y-118445069D01*
X154729670Y-118135585D01*
X154243489Y-117810729D01*
X153670000Y-117696655D01*
X153096511Y-117810729D01*
X152610330Y-118135585D01*
X152600757Y-118149913D01*
X152596762Y-118128683D01*
X152457690Y-117912559D01*
X152245490Y-117767569D01*
X151993600Y-117716560D01*
X150266400Y-117716560D01*
X150031083Y-117760838D01*
X149814959Y-117899910D01*
X149669969Y-118112110D01*
X149661600Y-118153439D01*
X149649670Y-118135585D01*
X149163489Y-117810729D01*
X148590000Y-117696655D01*
X148016511Y-117810729D01*
X147832255Y-117933845D01*
X147934838Y-117686799D01*
X147934879Y-117639923D01*
X148314802Y-117260000D01*
X149000000Y-117260000D01*
X149290839Y-117202148D01*
X149537401Y-117037401D01*
X150659803Y-115914999D01*
X150706883Y-116028943D01*
X150969673Y-116292192D01*
X151313201Y-116434838D01*
X151685167Y-116435162D01*
X152028943Y-116293117D01*
X152292192Y-116030327D01*
X152417884Y-115727629D01*
X152572757Y-115572756D01*
X152748343Y-115309973D01*
X152775766Y-115172103D01*
X152810000Y-115000000D01*
X152810000Y-113987441D01*
X152934838Y-113686799D01*
X152935162Y-113314833D01*
X152793117Y-112971057D01*
X152530327Y-112707808D01*
X152186799Y-112565162D01*
X151934944Y-112564943D01*
X151935162Y-112314833D01*
X151793117Y-111971057D01*
X151530327Y-111707808D01*
X151186799Y-111565162D01*
X150814833Y-111564838D01*
X150499649Y-111695069D01*
X150186799Y-111565162D01*
X149814833Y-111564838D01*
X149471057Y-111706883D01*
X149207808Y-111969673D01*
X149065162Y-112313201D01*
X149064838Y-112685167D01*
X149206883Y-113028943D01*
X149240000Y-113062118D01*
X149240000Y-114185198D01*
X148610320Y-114814878D01*
X148564833Y-114814838D01*
X148221057Y-114956883D01*
X147957808Y-115219673D01*
X147815162Y-115563201D01*
X147814976Y-115776804D01*
X147709161Y-115797852D01*
X147462599Y-115962599D01*
X146860320Y-116564878D01*
X146814833Y-116564838D01*
X146471057Y-116706883D01*
X146207808Y-116969673D01*
X146065162Y-117313201D01*
X146064838Y-117685167D01*
X146071339Y-117700899D01*
X146050000Y-117696655D01*
X145476511Y-117810729D01*
X144990330Y-118135585D01*
X144780000Y-118450366D01*
X144569670Y-118135585D01*
X144083489Y-117810729D01*
X144017896Y-117797682D01*
X144028943Y-117793117D01*
X144292192Y-117530327D01*
X144434838Y-117186799D01*
X144434879Y-117139923D01*
X144537401Y-117037401D01*
X144702148Y-116790839D01*
X144760000Y-116500000D01*
X144760000Y-114062463D01*
X144792192Y-114030327D01*
X144934838Y-113686799D01*
X144935162Y-113314833D01*
X144793117Y-112971057D01*
X144530327Y-112707808D01*
X144186799Y-112565162D01*
X143814833Y-112564838D01*
X143499649Y-112695069D01*
X143186799Y-112565162D01*
X142814833Y-112564838D01*
X142471057Y-112706883D01*
X142207808Y-112969673D01*
X142065162Y-113313201D01*
X142064838Y-113685167D01*
X142206883Y-114028943D01*
X142240000Y-114062118D01*
X142240000Y-115685198D01*
X141962599Y-115962599D01*
X141797852Y-116209161D01*
X141740000Y-116500000D01*
X141740000Y-116937537D01*
X141707808Y-116969673D01*
X141565162Y-117313201D01*
X141564838Y-117685167D01*
X141644647Y-117878321D01*
X141543489Y-117810729D01*
X140970000Y-117696655D01*
X140396511Y-117810729D01*
X139910330Y-118135585D01*
X139700000Y-118450366D01*
X139489670Y-118135585D01*
X139003489Y-117810729D01*
X138430000Y-117696655D01*
X137856511Y-117810729D01*
X137370330Y-118135585D01*
X137160000Y-118450366D01*
X136949670Y-118135585D01*
X136463489Y-117810729D01*
X135890000Y-117696655D01*
X135316511Y-117810729D01*
X134830330Y-118135585D01*
X134620000Y-118450366D01*
X134409670Y-118135585D01*
X133923489Y-117810729D01*
X133350000Y-117696655D01*
X132776511Y-117810729D01*
X132290330Y-118135585D01*
X132080000Y-118450366D01*
X131869670Y-118135585D01*
X131383489Y-117810729D01*
X130810000Y-117696655D01*
X130236511Y-117810729D01*
X129750330Y-118135585D01*
X129540000Y-118450366D01*
X129329670Y-118135585D01*
X128843489Y-117810729D01*
X128270000Y-117696655D01*
X127696511Y-117810729D01*
X127210330Y-118135585D01*
X127000000Y-118450366D01*
X126789670Y-118135585D01*
X126303489Y-117810729D01*
X125730000Y-117696655D01*
X125156511Y-117810729D01*
X124670330Y-118135585D01*
X124460000Y-118450366D01*
X124249670Y-118135585D01*
X123763489Y-117810729D01*
X123190000Y-117696655D01*
X122616511Y-117810729D01*
X122130330Y-118135585D01*
X121920000Y-118450366D01*
X121709670Y-118135585D01*
X121223489Y-117810729D01*
X120650000Y-117696655D01*
X120076511Y-117810729D01*
X119590330Y-118135585D01*
X119580757Y-118149913D01*
X119576762Y-118128683D01*
X119437690Y-117912559D01*
X119225490Y-117767569D01*
X118973600Y-117716560D01*
X117246400Y-117716560D01*
X117072506Y-117749281D01*
X117047298Y-117724073D01*
X116813909Y-117627400D01*
X116442104Y-117627400D01*
X117207800Y-117311020D01*
X117808909Y-116710959D01*
X118134628Y-115926541D01*
X118135370Y-115077185D01*
X117882560Y-114465338D01*
X138614190Y-114465338D01*
X138824686Y-114974777D01*
X139214113Y-115364884D01*
X139723184Y-115576269D01*
X140274398Y-115576750D01*
X140783837Y-115366254D01*
X141173944Y-114976827D01*
X141385329Y-114467756D01*
X141385810Y-113916542D01*
X141175314Y-113407103D01*
X140785887Y-113016996D01*
X140276816Y-112805611D01*
X139725602Y-112805130D01*
X139216163Y-113015626D01*
X138826056Y-113405053D01*
X138614671Y-113914124D01*
X138614190Y-114465338D01*
X117882560Y-114465338D01*
X117811020Y-114292200D01*
X117210959Y-113691091D01*
X116426541Y-113365372D01*
X115577185Y-113364630D01*
X114792200Y-113688980D01*
X114710000Y-113771037D01*
X114710000Y-112997440D01*
X115650000Y-112997440D01*
X115885317Y-112953162D01*
X116101441Y-112814090D01*
X116138399Y-112760000D01*
X117437537Y-112760000D01*
X117469673Y-112792192D01*
X117813201Y-112934838D01*
X118185167Y-112935162D01*
X118528943Y-112793117D01*
X118562118Y-112760000D01*
X118859243Y-112760000D01*
X118885910Y-112801441D01*
X119098110Y-112946431D01*
X119350000Y-112997440D01*
X120800000Y-112997440D01*
X121035317Y-112953162D01*
X121251441Y-112814090D01*
X121396431Y-112601890D01*
X121447440Y-112350000D01*
X121447440Y-111650000D01*
X121403162Y-111414683D01*
X121264090Y-111198559D01*
X121051890Y-111053569D01*
X120800000Y-111002560D01*
X119350000Y-111002560D01*
X119114683Y-111046838D01*
X118898559Y-111185910D01*
X118861601Y-111240000D01*
X118562463Y-111240000D01*
X118530327Y-111207808D01*
X118186799Y-111065162D01*
X117814833Y-111064838D01*
X117471057Y-111206883D01*
X117437882Y-111240000D01*
X116140757Y-111240000D01*
X116114090Y-111198559D01*
X115901890Y-111053569D01*
X115650000Y-111002560D01*
X114710000Y-111002560D01*
X114710000Y-110914250D01*
X114798000Y-110826250D01*
X114798000Y-110127000D01*
X115052000Y-110127000D01*
X115052000Y-110826250D01*
X115210750Y-110985000D01*
X115776309Y-110985000D01*
X116009698Y-110888327D01*
X116188327Y-110709699D01*
X116285000Y-110476310D01*
X116285000Y-110285750D01*
X118715000Y-110285750D01*
X118715000Y-110476310D01*
X118811673Y-110709699D01*
X118990302Y-110888327D01*
X119223691Y-110985000D01*
X119789250Y-110985000D01*
X119948000Y-110826250D01*
X119948000Y-110127000D01*
X120202000Y-110127000D01*
X120202000Y-110826250D01*
X120360750Y-110985000D01*
X120926309Y-110985000D01*
X121159698Y-110888327D01*
X121338327Y-110709699D01*
X121435000Y-110476310D01*
X121435000Y-110285750D01*
X121276250Y-110127000D01*
X120202000Y-110127000D01*
X119948000Y-110127000D01*
X118873750Y-110127000D01*
X118715000Y-110285750D01*
X116285000Y-110285750D01*
X116126250Y-110127000D01*
X115052000Y-110127000D01*
X114798000Y-110127000D01*
X114778000Y-110127000D01*
X114778000Y-109873000D01*
X114798000Y-109873000D01*
X114798000Y-109173750D01*
X115052000Y-109173750D01*
X115052000Y-109873000D01*
X116126250Y-109873000D01*
X116285000Y-109714250D01*
X116285000Y-109523690D01*
X118715000Y-109523690D01*
X118715000Y-109714250D01*
X118873750Y-109873000D01*
X119948000Y-109873000D01*
X119948000Y-109173750D01*
X120202000Y-109173750D01*
X120202000Y-109873000D01*
X121276250Y-109873000D01*
X121435000Y-109714250D01*
X121435000Y-109523690D01*
X121338327Y-109290301D01*
X121159698Y-109111673D01*
X120926309Y-109015000D01*
X120360750Y-109015000D01*
X120202000Y-109173750D01*
X119948000Y-109173750D01*
X119789250Y-109015000D01*
X119223691Y-109015000D01*
X118990302Y-109111673D01*
X118811673Y-109290301D01*
X118715000Y-109523690D01*
X116285000Y-109523690D01*
X116188327Y-109290301D01*
X116009698Y-109111673D01*
X115776309Y-109015000D01*
X115210750Y-109015000D01*
X115052000Y-109173750D01*
X114798000Y-109173750D01*
X114710000Y-109085750D01*
X114710000Y-108685167D01*
X123064838Y-108685167D01*
X123206883Y-109028943D01*
X123469673Y-109292192D01*
X123813201Y-109434838D01*
X123860077Y-109434879D01*
X124962599Y-110537401D01*
X125209160Y-110702148D01*
X125500000Y-110760000D01*
X127937537Y-110760000D01*
X127969673Y-110792192D01*
X128313201Y-110934838D01*
X128685167Y-110935162D01*
X129028943Y-110793117D01*
X129292192Y-110530327D01*
X129434838Y-110186799D01*
X129435162Y-109814833D01*
X129339561Y-109583458D01*
X138614190Y-109583458D01*
X138824686Y-110092897D01*
X139214113Y-110483004D01*
X139723184Y-110694389D01*
X140274398Y-110694870D01*
X140783837Y-110484374D01*
X141173944Y-110094947D01*
X141385329Y-109585876D01*
X141385810Y-109034662D01*
X141175314Y-108525223D01*
X140785887Y-108135116D01*
X140276816Y-107923731D01*
X139725602Y-107923250D01*
X139216163Y-108133746D01*
X138826056Y-108523173D01*
X138614671Y-109032244D01*
X138614190Y-109583458D01*
X129339561Y-109583458D01*
X129293117Y-109471057D01*
X129030327Y-109207808D01*
X128686799Y-109065162D01*
X128314833Y-109064838D01*
X127971057Y-109206883D01*
X127937882Y-109240000D01*
X125814802Y-109240000D01*
X124935122Y-108360320D01*
X124935162Y-108314833D01*
X124793117Y-107971057D01*
X124530327Y-107707808D01*
X124186799Y-107565162D01*
X123814833Y-107564838D01*
X123471057Y-107706883D01*
X123207808Y-107969673D01*
X123065162Y-108313201D01*
X123064838Y-108685167D01*
X114710000Y-108685167D01*
X114710000Y-108066949D01*
X115187054Y-108285983D01*
X115443000Y-108167367D01*
X115443000Y-106807000D01*
X115697000Y-106807000D01*
X115697000Y-108167367D01*
X115952946Y-108285983D01*
X116538379Y-108017188D01*
X116976385Y-107544818D01*
X117175975Y-107062944D01*
X117056836Y-106807000D01*
X115697000Y-106807000D01*
X115443000Y-106807000D01*
X115423000Y-106807000D01*
X115423000Y-106553000D01*
X115443000Y-106553000D01*
X115443000Y-106533000D01*
X115697000Y-106533000D01*
X115697000Y-106553000D01*
X117056836Y-106553000D01*
X117175975Y-106297056D01*
X116976385Y-105815182D01*
X116885903Y-105717602D01*
X117037441Y-105620090D01*
X117182431Y-105407890D01*
X117233440Y-105156000D01*
X117233440Y-103124000D01*
X117189162Y-102888683D01*
X117074183Y-102710000D01*
X118270270Y-102710000D01*
X118191091Y-102789041D01*
X118191091Y-102789041D01*
G37*
X118191091Y-102789041D02*
X117865372Y-103573459D01*
X117864630Y-104422815D01*
X118188980Y-105207800D01*
X118789041Y-105808909D01*
X119573459Y-106134628D01*
X120422815Y-106135370D01*
X121207800Y-105811020D01*
X121808909Y-105210959D01*
X122134628Y-104426541D01*
X122135370Y-103577185D01*
X121811020Y-102792200D01*
X121728963Y-102710000D01*
X128038334Y-102710000D01*
X127927569Y-102872110D01*
X127876560Y-103124000D01*
X127876560Y-105156000D01*
X127892366Y-105240000D01*
X126062463Y-105240000D01*
X126030327Y-105207808D01*
X125686799Y-105065162D01*
X125314833Y-105064838D01*
X124971057Y-105206883D01*
X124707808Y-105469673D01*
X124565162Y-105813201D01*
X124564838Y-106185167D01*
X124706883Y-106528943D01*
X124969673Y-106792192D01*
X125313201Y-106934838D01*
X125685167Y-106935162D01*
X126028943Y-106793117D01*
X126062118Y-106760000D01*
X128185198Y-106760000D01*
X128462599Y-107037401D01*
X128709161Y-107202148D01*
X129000000Y-107260000D01*
X131345758Y-107260000D01*
X131456883Y-107528943D01*
X131719673Y-107792192D01*
X132063201Y-107934838D01*
X132435167Y-107935162D01*
X132778943Y-107793117D01*
X133042192Y-107530327D01*
X133184838Y-107186799D01*
X133185162Y-106814833D01*
X133129451Y-106680000D01*
X145636655Y-106680000D01*
X145750729Y-107253489D01*
X146075585Y-107739670D01*
X146390366Y-107950000D01*
X146075585Y-108160330D01*
X145750729Y-108646511D01*
X145636655Y-109220000D01*
X145750729Y-109793489D01*
X146075585Y-110279670D01*
X146089913Y-110289243D01*
X146068683Y-110293238D01*
X145852559Y-110432310D01*
X145707569Y-110644510D01*
X145656560Y-110896400D01*
X145656560Y-112623600D01*
X145700838Y-112858917D01*
X145839910Y-113075041D01*
X146052110Y-113220031D01*
X146304000Y-113271040D01*
X148336000Y-113271040D01*
X148571317Y-113226762D01*
X148787441Y-113087690D01*
X148932431Y-112875490D01*
X148983440Y-112623600D01*
X148983440Y-110896400D01*
X148939162Y-110661083D01*
X148800090Y-110444959D01*
X148587890Y-110299969D01*
X148546561Y-110291600D01*
X148564415Y-110279670D01*
X148889271Y-109793489D01*
X149003345Y-109220000D01*
X148889271Y-108646511D01*
X148564415Y-108160330D01*
X148249634Y-107950000D01*
X148564415Y-107739670D01*
X148889271Y-107253489D01*
X149003345Y-106680000D01*
X148889271Y-106106511D01*
X148564415Y-105620330D01*
X148254931Y-105413539D01*
X148670732Y-105042036D01*
X148924709Y-104514791D01*
X148927358Y-104499026D01*
X148806217Y-104267000D01*
X147447000Y-104267000D01*
X147447000Y-104287000D01*
X147193000Y-104287000D01*
X147193000Y-104267000D01*
X145833783Y-104267000D01*
X145712642Y-104499026D01*
X145715291Y-104514791D01*
X145969268Y-105042036D01*
X146385069Y-105413539D01*
X146075585Y-105620330D01*
X145750729Y-106106511D01*
X145636655Y-106680000D01*
X133129451Y-106680000D01*
X133043117Y-106471057D01*
X132780327Y-106207808D01*
X132436799Y-106065162D01*
X132389923Y-106065121D01*
X132287401Y-105962599D01*
X132078565Y-105823060D01*
X132080000Y-105823345D01*
X132711810Y-105697670D01*
X133247433Y-105339778D01*
X133605325Y-104804155D01*
X133661261Y-104522946D01*
X135554017Y-104522946D01*
X135822812Y-105108379D01*
X136295182Y-105546385D01*
X136777056Y-105745975D01*
X137033000Y-105626836D01*
X137033000Y-104267000D01*
X135672633Y-104267000D01*
X135554017Y-104522946D01*
X133661261Y-104522946D01*
X133731000Y-104172345D01*
X133731000Y-104107655D01*
X133605325Y-103475845D01*
X133247433Y-102940222D01*
X132902882Y-102710000D01*
X136352196Y-102710000D01*
X136295182Y-102733615D01*
X135822812Y-103171621D01*
X135554017Y-103757054D01*
X135672633Y-104013000D01*
X137033000Y-104013000D01*
X137033000Y-103993000D01*
X137287000Y-103993000D01*
X137287000Y-104013000D01*
X137307000Y-104013000D01*
X137307000Y-104267000D01*
X137287000Y-104267000D01*
X137287000Y-105626836D01*
X137542944Y-105745975D01*
X138024818Y-105546385D01*
X138122398Y-105455903D01*
X138219910Y-105607441D01*
X138432110Y-105752431D01*
X138684000Y-105803440D01*
X140716000Y-105803440D01*
X140951317Y-105759162D01*
X141167441Y-105620090D01*
X141312431Y-105407890D01*
X141363440Y-105156000D01*
X141363440Y-103124000D01*
X141319162Y-102888683D01*
X141204183Y-102710000D01*
X146800327Y-102710000D01*
X146405680Y-102848046D01*
X145969268Y-103237964D01*
X145715291Y-103765209D01*
X145712642Y-103780974D01*
X145833783Y-104013000D01*
X147193000Y-104013000D01*
X147193000Y-103993000D01*
X147447000Y-103993000D01*
X147447000Y-104013000D01*
X148806217Y-104013000D01*
X148927358Y-103780974D01*
X148924709Y-103765209D01*
X148670732Y-103237964D01*
X148234320Y-102848046D01*
X147839673Y-102710000D01*
X150270270Y-102710000D01*
X150191091Y-102789041D01*
X149865372Y-103573459D01*
X149864630Y-104422815D01*
X150188980Y-105207800D01*
X150789041Y-105808909D01*
X151573459Y-106134628D01*
X152422815Y-106135370D01*
X153207800Y-105811020D01*
X153808909Y-105210959D01*
X154134628Y-104426541D01*
X154135370Y-103577185D01*
X153811020Y-102792200D01*
X153728963Y-102710000D01*
X155690327Y-102710000D01*
X155295680Y-102848046D01*
X154859268Y-103237964D01*
X154605291Y-103765209D01*
X154602642Y-103780974D01*
X154723783Y-104013000D01*
X156083000Y-104013000D01*
X156083000Y-103993000D01*
X156337000Y-103993000D01*
X156337000Y-104013000D01*
X156357000Y-104013000D01*
X156357000Y-104267000D01*
X156337000Y-104267000D01*
X156337000Y-104287000D01*
X156083000Y-104287000D01*
X156083000Y-104267000D01*
X154723783Y-104267000D01*
X154602642Y-104499026D01*
X154605291Y-104514791D01*
X154859268Y-105042036D01*
X155275069Y-105413539D01*
X154965585Y-105620330D01*
X154640729Y-106106511D01*
X154526655Y-106680000D01*
X154640729Y-107253489D01*
X154965585Y-107739670D01*
X155280366Y-107950000D01*
X154965585Y-108160330D01*
X154640729Y-108646511D01*
X154526655Y-109220000D01*
X154640729Y-109793489D01*
X154965585Y-110279670D01*
X154979913Y-110289243D01*
X154958683Y-110293238D01*
X154742559Y-110432310D01*
X154597569Y-110644510D01*
X154546560Y-110896400D01*
X154546560Y-112623600D01*
X154590838Y-112858917D01*
X154729910Y-113075041D01*
X154942110Y-113220031D01*
X155194000Y-113271040D01*
X157226000Y-113271040D01*
X157290000Y-113258998D01*
X157290000Y-113770270D01*
X157210959Y-113691091D01*
X156426541Y-113365372D01*
X155577185Y-113364630D01*
X154792200Y-113688980D01*
X154191091Y-114289041D01*
X153865372Y-115073459D01*
X153864630Y-115922815D01*
X154188980Y-116707800D01*
X154789041Y-117308909D01*
X155573459Y-117634628D01*
X156422815Y-117635370D01*
X157207800Y-117311020D01*
X157290000Y-117228963D01*
X157290000Y-118228453D01*
X157112036Y-118029268D01*
X156584791Y-117775291D01*
X156569026Y-117772642D01*
X156337000Y-117893783D01*
X156337000Y-119253000D01*
X156357000Y-119253000D01*
X156357000Y-119507000D01*
X156337000Y-119507000D01*
X156337000Y-119527000D01*
X156083000Y-119527000D01*
X156083000Y-119507000D01*
X156063000Y-119507000D01*
X156063000Y-119253000D01*
X156083000Y-119253000D01*
X156083000Y-117893783D01*
X155850974Y-117772642D01*
X155835209Y-117775291D01*
X155307964Y-118029268D01*
X154936461Y-118445069D01*
X154729670Y-118135585D01*
X154243489Y-117810729D01*
X153670000Y-117696655D01*
X153096511Y-117810729D01*
X152610330Y-118135585D01*
X152600757Y-118149913D01*
X152596762Y-118128683D01*
X152457690Y-117912559D01*
X152245490Y-117767569D01*
X151993600Y-117716560D01*
X150266400Y-117716560D01*
X150031083Y-117760838D01*
X149814959Y-117899910D01*
X149669969Y-118112110D01*
X149661600Y-118153439D01*
X149649670Y-118135585D01*
X149163489Y-117810729D01*
X148590000Y-117696655D01*
X148016511Y-117810729D01*
X147832255Y-117933845D01*
X147934838Y-117686799D01*
X147934879Y-117639923D01*
X148314802Y-117260000D01*
X149000000Y-117260000D01*
X149290839Y-117202148D01*
X149537401Y-117037401D01*
X150659803Y-115914999D01*
X150706883Y-116028943D01*
X150969673Y-116292192D01*
X151313201Y-116434838D01*
X151685167Y-116435162D01*
X152028943Y-116293117D01*
X152292192Y-116030327D01*
X152417884Y-115727629D01*
X152572757Y-115572756D01*
X152748343Y-115309973D01*
X152775766Y-115172103D01*
X152810000Y-115000000D01*
X152810000Y-113987441D01*
X152934838Y-113686799D01*
X152935162Y-113314833D01*
X152793117Y-112971057D01*
X152530327Y-112707808D01*
X152186799Y-112565162D01*
X151934944Y-112564943D01*
X151935162Y-112314833D01*
X151793117Y-111971057D01*
X151530327Y-111707808D01*
X151186799Y-111565162D01*
X150814833Y-111564838D01*
X150499649Y-111695069D01*
X150186799Y-111565162D01*
X149814833Y-111564838D01*
X149471057Y-111706883D01*
X149207808Y-111969673D01*
X149065162Y-112313201D01*
X149064838Y-112685167D01*
X149206883Y-113028943D01*
X149240000Y-113062118D01*
X149240000Y-114185198D01*
X148610320Y-114814878D01*
X148564833Y-114814838D01*
X148221057Y-114956883D01*
X147957808Y-115219673D01*
X147815162Y-115563201D01*
X147814976Y-115776804D01*
X147709161Y-115797852D01*
X147462599Y-115962599D01*
X146860320Y-116564878D01*
X146814833Y-116564838D01*
X146471057Y-116706883D01*
X146207808Y-116969673D01*
X146065162Y-117313201D01*
X146064838Y-117685167D01*
X146071339Y-117700899D01*
X146050000Y-117696655D01*
X145476511Y-117810729D01*
X144990330Y-118135585D01*
X144780000Y-118450366D01*
X144569670Y-118135585D01*
X144083489Y-117810729D01*
X144017896Y-117797682D01*
X144028943Y-117793117D01*
X144292192Y-117530327D01*
X144434838Y-117186799D01*
X144434879Y-117139923D01*
X144537401Y-117037401D01*
X144702148Y-116790839D01*
X144760000Y-116500000D01*
X144760000Y-114062463D01*
X144792192Y-114030327D01*
X144934838Y-113686799D01*
X144935162Y-113314833D01*
X144793117Y-112971057D01*
X144530327Y-112707808D01*
X144186799Y-112565162D01*
X143814833Y-112564838D01*
X143499649Y-112695069D01*
X143186799Y-112565162D01*
X142814833Y-112564838D01*
X142471057Y-112706883D01*
X142207808Y-112969673D01*
X142065162Y-113313201D01*
X142064838Y-113685167D01*
X142206883Y-114028943D01*
X142240000Y-114062118D01*
X142240000Y-115685198D01*
X141962599Y-115962599D01*
X141797852Y-116209161D01*
X141740000Y-116500000D01*
X141740000Y-116937537D01*
X141707808Y-116969673D01*
X141565162Y-117313201D01*
X141564838Y-117685167D01*
X141644647Y-117878321D01*
X141543489Y-117810729D01*
X140970000Y-117696655D01*
X140396511Y-117810729D01*
X139910330Y-118135585D01*
X139700000Y-118450366D01*
X139489670Y-118135585D01*
X139003489Y-117810729D01*
X138430000Y-117696655D01*
X137856511Y-117810729D01*
X137370330Y-118135585D01*
X137160000Y-118450366D01*
X136949670Y-118135585D01*
X136463489Y-117810729D01*
X135890000Y-117696655D01*
X135316511Y-117810729D01*
X134830330Y-118135585D01*
X134620000Y-118450366D01*
X134409670Y-118135585D01*
X133923489Y-117810729D01*
X133350000Y-117696655D01*
X132776511Y-117810729D01*
X132290330Y-118135585D01*
X132080000Y-118450366D01*
X131869670Y-118135585D01*
X131383489Y-117810729D01*
X130810000Y-117696655D01*
X130236511Y-117810729D01*
X129750330Y-118135585D01*
X129540000Y-118450366D01*
X129329670Y-118135585D01*
X128843489Y-117810729D01*
X128270000Y-117696655D01*
X127696511Y-117810729D01*
X127210330Y-118135585D01*
X127000000Y-118450366D01*
X126789670Y-118135585D01*
X126303489Y-117810729D01*
X125730000Y-117696655D01*
X125156511Y-117810729D01*
X124670330Y-118135585D01*
X124460000Y-118450366D01*
X124249670Y-118135585D01*
X123763489Y-117810729D01*
X123190000Y-117696655D01*
X122616511Y-117810729D01*
X122130330Y-118135585D01*
X121920000Y-118450366D01*
X121709670Y-118135585D01*
X121223489Y-117810729D01*
X120650000Y-117696655D01*
X120076511Y-117810729D01*
X119590330Y-118135585D01*
X119580757Y-118149913D01*
X119576762Y-118128683D01*
X119437690Y-117912559D01*
X119225490Y-117767569D01*
X118973600Y-117716560D01*
X117246400Y-117716560D01*
X117072506Y-117749281D01*
X117047298Y-117724073D01*
X116813909Y-117627400D01*
X116442104Y-117627400D01*
X117207800Y-117311020D01*
X117808909Y-116710959D01*
X118134628Y-115926541D01*
X118135370Y-115077185D01*
X117882560Y-114465338D01*
X138614190Y-114465338D01*
X138824686Y-114974777D01*
X139214113Y-115364884D01*
X139723184Y-115576269D01*
X140274398Y-115576750D01*
X140783837Y-115366254D01*
X141173944Y-114976827D01*
X141385329Y-114467756D01*
X141385810Y-113916542D01*
X141175314Y-113407103D01*
X140785887Y-113016996D01*
X140276816Y-112805611D01*
X139725602Y-112805130D01*
X139216163Y-113015626D01*
X138826056Y-113405053D01*
X138614671Y-113914124D01*
X138614190Y-114465338D01*
X117882560Y-114465338D01*
X117811020Y-114292200D01*
X117210959Y-113691091D01*
X116426541Y-113365372D01*
X115577185Y-113364630D01*
X114792200Y-113688980D01*
X114710000Y-113771037D01*
X114710000Y-112997440D01*
X115650000Y-112997440D01*
X115885317Y-112953162D01*
X116101441Y-112814090D01*
X116138399Y-112760000D01*
X117437537Y-112760000D01*
X117469673Y-112792192D01*
X117813201Y-112934838D01*
X118185167Y-112935162D01*
X118528943Y-112793117D01*
X118562118Y-112760000D01*
X118859243Y-112760000D01*
X118885910Y-112801441D01*
X119098110Y-112946431D01*
X119350000Y-112997440D01*
X120800000Y-112997440D01*
X121035317Y-112953162D01*
X121251441Y-112814090D01*
X121396431Y-112601890D01*
X121447440Y-112350000D01*
X121447440Y-111650000D01*
X121403162Y-111414683D01*
X121264090Y-111198559D01*
X121051890Y-111053569D01*
X120800000Y-111002560D01*
X119350000Y-111002560D01*
X119114683Y-111046838D01*
X118898559Y-111185910D01*
X118861601Y-111240000D01*
X118562463Y-111240000D01*
X118530327Y-111207808D01*
X118186799Y-111065162D01*
X117814833Y-111064838D01*
X117471057Y-111206883D01*
X117437882Y-111240000D01*
X116140757Y-111240000D01*
X116114090Y-111198559D01*
X115901890Y-111053569D01*
X115650000Y-111002560D01*
X114710000Y-111002560D01*
X114710000Y-110914250D01*
X114798000Y-110826250D01*
X114798000Y-110127000D01*
X115052000Y-110127000D01*
X115052000Y-110826250D01*
X115210750Y-110985000D01*
X115776309Y-110985000D01*
X116009698Y-110888327D01*
X116188327Y-110709699D01*
X116285000Y-110476310D01*
X116285000Y-110285750D01*
X118715000Y-110285750D01*
X118715000Y-110476310D01*
X118811673Y-110709699D01*
X118990302Y-110888327D01*
X119223691Y-110985000D01*
X119789250Y-110985000D01*
X119948000Y-110826250D01*
X119948000Y-110127000D01*
X120202000Y-110127000D01*
X120202000Y-110826250D01*
X120360750Y-110985000D01*
X120926309Y-110985000D01*
X121159698Y-110888327D01*
X121338327Y-110709699D01*
X121435000Y-110476310D01*
X121435000Y-110285750D01*
X121276250Y-110127000D01*
X120202000Y-110127000D01*
X119948000Y-110127000D01*
X118873750Y-110127000D01*
X118715000Y-110285750D01*
X116285000Y-110285750D01*
X116126250Y-110127000D01*
X115052000Y-110127000D01*
X114798000Y-110127000D01*
X114778000Y-110127000D01*
X114778000Y-109873000D01*
X114798000Y-109873000D01*
X114798000Y-109173750D01*
X115052000Y-109173750D01*
X115052000Y-109873000D01*
X116126250Y-109873000D01*
X116285000Y-109714250D01*
X116285000Y-109523690D01*
X118715000Y-109523690D01*
X118715000Y-109714250D01*
X118873750Y-109873000D01*
X119948000Y-109873000D01*
X119948000Y-109173750D01*
X120202000Y-109173750D01*
X120202000Y-109873000D01*
X121276250Y-109873000D01*
X121435000Y-109714250D01*
X121435000Y-109523690D01*
X121338327Y-109290301D01*
X121159698Y-109111673D01*
X120926309Y-109015000D01*
X120360750Y-109015000D01*
X120202000Y-109173750D01*
X119948000Y-109173750D01*
X119789250Y-109015000D01*
X119223691Y-109015000D01*
X118990302Y-109111673D01*
X118811673Y-109290301D01*
X118715000Y-109523690D01*
X116285000Y-109523690D01*
X116188327Y-109290301D01*
X116009698Y-109111673D01*
X115776309Y-109015000D01*
X115210750Y-109015000D01*
X115052000Y-109173750D01*
X114798000Y-109173750D01*
X114710000Y-109085750D01*
X114710000Y-108685167D01*
X123064838Y-108685167D01*
X123206883Y-109028943D01*
X123469673Y-109292192D01*
X123813201Y-109434838D01*
X123860077Y-109434879D01*
X124962599Y-110537401D01*
X125209160Y-110702148D01*
X125500000Y-110760000D01*
X127937537Y-110760000D01*
X127969673Y-110792192D01*
X128313201Y-110934838D01*
X128685167Y-110935162D01*
X129028943Y-110793117D01*
X129292192Y-110530327D01*
X129434838Y-110186799D01*
X129435162Y-109814833D01*
X129339561Y-109583458D01*
X138614190Y-109583458D01*
X138824686Y-110092897D01*
X139214113Y-110483004D01*
X139723184Y-110694389D01*
X140274398Y-110694870D01*
X140783837Y-110484374D01*
X141173944Y-110094947D01*
X141385329Y-109585876D01*
X141385810Y-109034662D01*
X141175314Y-108525223D01*
X140785887Y-108135116D01*
X140276816Y-107923731D01*
X139725602Y-107923250D01*
X139216163Y-108133746D01*
X138826056Y-108523173D01*
X138614671Y-109032244D01*
X138614190Y-109583458D01*
X129339561Y-109583458D01*
X129293117Y-109471057D01*
X129030327Y-109207808D01*
X128686799Y-109065162D01*
X128314833Y-109064838D01*
X127971057Y-109206883D01*
X127937882Y-109240000D01*
X125814802Y-109240000D01*
X124935122Y-108360320D01*
X124935162Y-108314833D01*
X124793117Y-107971057D01*
X124530327Y-107707808D01*
X124186799Y-107565162D01*
X123814833Y-107564838D01*
X123471057Y-107706883D01*
X123207808Y-107969673D01*
X123065162Y-108313201D01*
X123064838Y-108685167D01*
X114710000Y-108685167D01*
X114710000Y-108066949D01*
X115187054Y-108285983D01*
X115443000Y-108167367D01*
X115443000Y-106807000D01*
X115697000Y-106807000D01*
X115697000Y-108167367D01*
X115952946Y-108285983D01*
X116538379Y-108017188D01*
X116976385Y-107544818D01*
X117175975Y-107062944D01*
X117056836Y-106807000D01*
X115697000Y-106807000D01*
X115443000Y-106807000D01*
X115423000Y-106807000D01*
X115423000Y-106553000D01*
X115443000Y-106553000D01*
X115443000Y-106533000D01*
X115697000Y-106533000D01*
X115697000Y-106553000D01*
X117056836Y-106553000D01*
X117175975Y-106297056D01*
X116976385Y-105815182D01*
X116885903Y-105717602D01*
X117037441Y-105620090D01*
X117182431Y-105407890D01*
X117233440Y-105156000D01*
X117233440Y-103124000D01*
X117189162Y-102888683D01*
X117074183Y-102710000D01*
X118270270Y-102710000D01*
X118191091Y-102789041D01*
M02*
