G04 #@! TF.FileFunction,Legend,Top*
%FSLAX46Y46*%
G04 Gerber Fmt 4.6, Leading zero omitted, Abs format (unit mm)*
G04 Created by KiCad (PCBNEW 0.201603031449+6606~43~ubuntu14.04.1-product) date mar. 08 mars 2016 23:21:37 CET*
%MOMM*%
G01*
G04 APERTURE LIST*
%ADD10C,0.100000*%
%ADD11C,0.150000*%
%ADD12C,0.203200*%
G04 APERTURE END LIST*
D10*
D11*
X138000000Y-106005000D02*
X139000000Y-106005000D01*
X139000000Y-107355000D02*
X138000000Y-107355000D01*
D12*
X137820000Y-110100000D02*
G75*
G03X137820000Y-110100000I-200000J0D01*
G01*
X138270000Y-109500000D02*
X131470000Y-109500000D01*
X131470000Y-109500000D02*
X131470000Y-113900000D01*
X131470000Y-113900000D02*
X138270000Y-113900000D01*
X138270000Y-113900000D02*
X138270000Y-109500000D01*
D11*
X144510760Y-116449000D02*
X144109440Y-116649660D01*
X144109440Y-116649660D02*
X143510000Y-116751260D01*
X143510000Y-116751260D02*
X143009620Y-116649660D01*
X143009620Y-116649660D02*
X142311120Y-116250880D01*
X142311120Y-116250880D02*
X141909800Y-115648900D01*
X141909800Y-115648900D02*
X141709140Y-115049460D01*
X141709140Y-115049460D02*
X141709140Y-108450540D01*
X141709140Y-108450540D02*
X141909800Y-107749500D01*
X141909800Y-107749500D02*
X142209520Y-107350720D01*
X142209520Y-107350720D02*
X142709900Y-106949400D01*
X142709900Y-106949400D02*
X143309340Y-106748740D01*
X143309340Y-106748740D02*
X143809720Y-106748740D01*
X143809720Y-106748740D02*
X144310100Y-106949400D01*
X144310100Y-106949400D02*
X144909540Y-107449780D01*
X144909540Y-107449780D02*
X145209260Y-107950160D01*
X145209260Y-107950160D02*
X145310860Y-108450540D01*
X145310860Y-108549600D02*
X145310860Y-115151060D01*
X145310860Y-115151060D02*
X145209260Y-115549840D01*
X145209260Y-115549840D02*
X144909540Y-116050220D01*
X144909540Y-116050220D02*
X144409160Y-116550600D01*
X145839180Y-108559760D02*
X145790920Y-108100020D01*
X145790920Y-108100020D02*
X145679160Y-107701240D01*
X145679160Y-107701240D02*
X145460720Y-107269440D01*
X145460720Y-107269440D02*
X145229580Y-106979880D01*
X145229580Y-106979880D02*
X144879060Y-106649680D01*
X144879060Y-106649680D02*
X144340580Y-106360120D01*
X144340580Y-106360120D02*
X143741140Y-106230580D01*
X143741140Y-106230580D02*
X143230600Y-106230580D01*
X143230600Y-106230580D02*
X142529560Y-106400760D01*
X142529560Y-106400760D02*
X141940280Y-106799540D01*
X141940280Y-106799540D02*
X141569440Y-107259280D01*
X141569440Y-107259280D02*
X141361160Y-107680920D01*
X141361160Y-107680920D02*
X141201140Y-108130500D01*
X141201140Y-108130500D02*
X141170660Y-108569920D01*
X141389100Y-115910520D02*
X141610080Y-116288980D01*
X141610080Y-116288980D02*
X141889480Y-116609020D01*
X141889480Y-116609020D02*
X142219680Y-116860480D01*
X142219680Y-116860480D02*
X142770860Y-117160200D01*
X142770860Y-117160200D02*
X143240760Y-117269420D01*
X143240760Y-117269420D02*
X143700500Y-117289740D01*
X143700500Y-117289740D02*
X144160240Y-117200840D01*
X144160240Y-117200840D02*
X144609820Y-117010340D01*
X144609820Y-117010340D02*
X145079720Y-116649660D01*
X145079720Y-116649660D02*
X145399760Y-116299140D01*
X145399760Y-116299140D02*
X145630900Y-115910520D01*
X145630900Y-115910520D02*
X145770600Y-115481260D01*
X145770600Y-115481260D02*
X145839180Y-115039300D01*
X141180820Y-108549600D02*
X141180820Y-115001200D01*
X141180820Y-115001200D02*
X141218920Y-115420300D01*
X141218920Y-115420300D02*
X141389100Y-115910520D01*
X145839180Y-108549600D02*
X145839180Y-115001200D01*
X120190000Y-108000000D02*
X120390000Y-108000000D01*
X126190000Y-108000000D02*
X125990000Y-108000000D01*
X126190000Y-114500000D02*
X125990000Y-114500000D01*
X120190000Y-114500000D02*
X120390000Y-114500000D01*
X121990000Y-114500000D02*
X124390000Y-114500000D01*
X121990000Y-108000000D02*
X124390000Y-108000000D01*
X120190000Y-108000000D02*
X120190000Y-114500000D01*
X126190000Y-114500000D02*
X126190000Y-108000000D01*
X125090000Y-111250000D02*
G75*
G03X125090000Y-111250000I-1900000J0D01*
G01*
X124690000Y-111250000D02*
G75*
G03X124690000Y-111250000I-1500000J0D01*
G01*
X123190000Y-102870000D02*
X125730000Y-102870000D01*
X120370000Y-102590000D02*
X121920000Y-102590000D01*
X123190000Y-102870000D02*
X123190000Y-105410000D01*
X121920000Y-105690000D02*
X120370000Y-105690000D01*
X120370000Y-105690000D02*
X120370000Y-102590000D01*
X123190000Y-105410000D02*
X125730000Y-105410000D01*
X125730000Y-105410000D02*
X125730000Y-102870000D01*
X134620000Y-102870000D02*
X137160000Y-102870000D01*
X131800000Y-102590000D02*
X133350000Y-102590000D01*
X134620000Y-102870000D02*
X134620000Y-105410000D01*
X133350000Y-105690000D02*
X131800000Y-105690000D01*
X131800000Y-105690000D02*
X131800000Y-102590000D01*
X134620000Y-105410000D02*
X137160000Y-105410000D01*
X137160000Y-105410000D02*
X137160000Y-102870000D01*
X114300000Y-110490000D02*
X114300000Y-107950000D01*
X114020000Y-113310000D02*
X114020000Y-111760000D01*
X114300000Y-110490000D02*
X116840000Y-110490000D01*
X117120000Y-111760000D02*
X117120000Y-113310000D01*
X117120000Y-113310000D02*
X114020000Y-113310000D01*
X116840000Y-110490000D02*
X116840000Y-107950000D01*
X116840000Y-107950000D02*
X114300000Y-107950000D01*
X127214000Y-109720000D02*
X127214000Y-108720000D01*
X128564000Y-108720000D02*
X128564000Y-109720000D01*
X140554000Y-109505000D02*
X140554000Y-110205000D01*
X139354000Y-110205000D02*
X139354000Y-109505000D01*
X139354000Y-113380000D02*
X139354000Y-112680000D01*
X140554000Y-112680000D02*
X140554000Y-113380000D01*
X128489000Y-112150000D02*
X128489000Y-112850000D01*
X127289000Y-112850000D02*
X127289000Y-112150000D01*
X117120000Y-117830000D02*
X117120000Y-119380000D01*
X114020000Y-119380000D02*
X114020000Y-117830000D01*
X114020000Y-117830000D02*
X117120000Y-117830000D01*
X114300000Y-120650000D02*
X116840000Y-120650000D01*
X147320000Y-120650000D02*
X152400000Y-120650000D01*
X152400000Y-120650000D02*
X152400000Y-118110000D01*
X152400000Y-118110000D02*
X147320000Y-118110000D01*
X144500000Y-117830000D02*
X146050000Y-117830000D01*
X147320000Y-118110000D02*
X147320000Y-120650000D01*
X146050000Y-120930000D02*
X144500000Y-120930000D01*
X144500000Y-120930000D02*
X144500000Y-117830000D01*
X135350000Y-117440000D02*
X134650000Y-117440000D01*
X134650000Y-116240000D02*
X135350000Y-116240000D01*
X135400000Y-106080000D02*
X136100000Y-106080000D01*
X136100000Y-107280000D02*
X135400000Y-107280000D01*
X128143000Y-104775000D02*
X126873000Y-104775000D01*
X128143000Y-103124000D02*
X126873000Y-103124000D01*
X126873000Y-103124000D02*
X126873000Y-105156000D01*
X126873000Y-105156000D02*
X128143000Y-105156000D01*
X128143000Y-105156000D02*
X128143000Y-103124000D01*
X130429000Y-104775000D02*
X129159000Y-104775000D01*
X130429000Y-103124000D02*
X129159000Y-103124000D01*
X129159000Y-103124000D02*
X129159000Y-105156000D01*
X129159000Y-105156000D02*
X130429000Y-105156000D01*
X130429000Y-105156000D02*
X130429000Y-103124000D01*
X119380000Y-118110000D02*
X144780000Y-118110000D01*
X144780000Y-118110000D02*
X144780000Y-120650000D01*
X144780000Y-120650000D02*
X119380000Y-120650000D01*
X116560000Y-117830000D02*
X118110000Y-117830000D01*
X119380000Y-118110000D02*
X119380000Y-120650000D01*
X118110000Y-120930000D02*
X116560000Y-120930000D01*
X116560000Y-120930000D02*
X116560000Y-117830000D01*
X149265000Y-109355000D02*
X149265000Y-110355000D01*
X147915000Y-110355000D02*
X147915000Y-109355000D01*
X151130000Y-109537500D02*
X151130000Y-109156500D01*
X151130000Y-110553500D02*
X151130000Y-110172500D01*
X151130000Y-110172500D02*
X150749000Y-109537500D01*
X150749000Y-109537500D02*
X151511000Y-109537500D01*
X151511000Y-109537500D02*
X151130000Y-110172500D01*
X150622000Y-110172500D02*
X151638000Y-110172500D01*
X152030000Y-111855000D02*
X152030000Y-108315000D01*
X150230000Y-111855000D02*
X150230000Y-108315000D01*
X139065000Y-107315000D02*
X139700000Y-106045000D01*
X140335000Y-107315000D02*
X139065000Y-107315000D01*
X139700000Y-106045000D02*
X140335000Y-107315000D01*
X142875000Y-93345000D02*
X142875000Y-99060000D01*
X141605000Y-93345000D02*
X142875000Y-93345000D01*
X141605000Y-99060000D02*
X141605000Y-93345000D01*
X137160000Y-95250000D02*
X136525000Y-93345000D01*
X137795000Y-93345000D02*
X137160000Y-95250000D01*
X136525000Y-93345000D02*
X137795000Y-93345000D01*
X148590000Y-92710000D02*
X148590000Y-101600000D01*
X144145000Y-92710000D02*
X148590000Y-92710000D01*
X144145000Y-99060000D02*
X144145000Y-92710000D01*
X140335000Y-99060000D02*
X144145000Y-99060000D01*
X140335000Y-92710000D02*
X140335000Y-99060000D01*
X135890000Y-92710000D02*
X140335000Y-92710000D01*
X135890000Y-101600000D02*
X135890000Y-92710000D01*
X148590000Y-101600000D02*
X135890000Y-101600000D01*
X146438952Y-113345238D02*
X146391333Y-113440476D01*
X146343714Y-113488095D01*
X146248476Y-113535714D01*
X146200857Y-113535714D01*
X146105619Y-113488095D01*
X146058000Y-113440476D01*
X146010381Y-113345238D01*
X146010381Y-113154761D01*
X146058000Y-113059523D01*
X146105619Y-113011904D01*
X146200857Y-112964285D01*
X146248476Y-112964285D01*
X146343714Y-113011904D01*
X146391333Y-113059523D01*
X146438952Y-113154761D01*
X146438952Y-113345238D01*
X146486571Y-113440476D01*
X146534190Y-113488095D01*
X146629429Y-113535714D01*
X146819905Y-113535714D01*
X146915143Y-113488095D01*
X146962762Y-113440476D01*
X147010381Y-113345238D01*
X147010381Y-113154761D01*
X146962762Y-113059523D01*
X146915143Y-113011904D01*
X146819905Y-112964285D01*
X146629429Y-112964285D01*
X146534190Y-113011904D01*
X146486571Y-113059523D01*
X146438952Y-113154761D01*
X147010381Y-112535714D02*
X146010381Y-112535714D01*
X146724667Y-112202380D01*
X146010381Y-111869047D01*
X147010381Y-111869047D01*
X147010381Y-111392857D02*
X146010381Y-111392857D01*
X146486571Y-111392857D02*
X146486571Y-110821428D01*
X147010381Y-110821428D02*
X146010381Y-110821428D01*
X146343714Y-110440476D02*
X146343714Y-109916666D01*
X147010381Y-110440476D01*
X147010381Y-109916666D01*
X134833334Y-119097143D02*
X134785715Y-119144762D01*
X134642858Y-119192381D01*
X134547620Y-119192381D01*
X134404762Y-119144762D01*
X134309524Y-119049524D01*
X134261905Y-118954286D01*
X134214286Y-118763810D01*
X134214286Y-118620952D01*
X134261905Y-118430476D01*
X134309524Y-118335238D01*
X134404762Y-118240000D01*
X134547620Y-118192381D01*
X134642858Y-118192381D01*
X134785715Y-118240000D01*
X134833334Y-118287619D01*
X135738096Y-118192381D02*
X135261905Y-118192381D01*
X135214286Y-118668571D01*
X135261905Y-118620952D01*
X135357143Y-118573333D01*
X135595239Y-118573333D01*
X135690477Y-118620952D01*
X135738096Y-118668571D01*
X135785715Y-118763810D01*
X135785715Y-119001905D01*
X135738096Y-119097143D01*
X135690477Y-119144762D01*
X135595239Y-119192381D01*
X135357143Y-119192381D01*
X135261905Y-119144762D01*
X135214286Y-119097143D01*
X141501905Y-109037381D02*
X141501905Y-108037381D01*
X141882858Y-108037381D01*
X141978096Y-108085000D01*
X142025715Y-108132619D01*
X142073334Y-108227857D01*
X142073334Y-108370714D01*
X142025715Y-108465952D01*
X141978096Y-108513571D01*
X141882858Y-108561190D01*
X141501905Y-108561190D01*
X142930477Y-108370714D02*
X142930477Y-109037381D01*
X142692381Y-107989762D02*
X142454286Y-108704048D01*
X143073334Y-108704048D01*
M02*
