M48
;DRILL file {KiCad 0.201510100348+6257~30~ubuntu14.04.1-product} date jeu. 15 oct. 2015 23:40:25 CEST
;FORMAT={-:-/ absolute / inch / decimal}
FMAT,2
INCH,TZ
T1C0.016
T2C0.032
T3C0.040
T4C0.079
%
G90
G05
M72
T1
X4.6457Y-4.4094
X4.7638Y-4.2126
X4.8819Y-4.2717
X4.8819Y-4.3504
X4.9409Y-4.1732
X5.0591Y-4.3307
X5.128Y-4.4094
X5.2067Y-4.2126
X5.4134Y-4.3504
X5.6102Y-4.626
X5.6299Y-4.4685
X5.6496Y-4.6063
X5.6693Y-4.4685
X5.7874Y-4.626
X5.8563Y-4.5571
X5.9055Y-4.4291
X5.9449Y-4.4291
X5.9646Y-4.5472
X5.9843Y-4.4685
T2
X5.5118Y-4.3035
X5.5118Y-4.4957
T3
X4.55Y-4.1
X4.55Y-4.2
X4.55Y-4.7
X4.65Y-4.7
X4.75Y-4.7
X4.85Y-4.7
X4.95Y-4.7
X5.05Y-4.7
X5.1Y-4.1
X5.15Y-4.7
X5.2Y-4.1
X5.25Y-4.7
X5.35Y-4.7
X5.4Y-4.1
X5.45Y-4.7
X5.5Y-4.1
X5.55Y-4.7
X5.65Y-4.7
X5.75Y-4.7
X5.8Y-4.1
X5.8Y-4.2
X5.8Y-4.3
X5.8Y-4.4
X5.85Y-4.7
X5.95Y-4.7
X6.05Y-4.7
X6.15Y-4.1
X6.15Y-4.2
X6.15Y-4.3
X6.15Y-4.4
X6.15Y-4.7
T4
X4.5669Y-4.5472
X4.7244Y-4.0945
X5.9843Y-4.0945
X6.1417Y-4.5472
T0
M30
