G04 #@! TF.FileFunction,Copper,L1,Top,Signal*
%FSLAX46Y46*%
G04 Gerber Fmt 4.6, Leading zero omitted, Abs format (unit mm)*
G04 Created by KiCad (PCBNEW 0.201510100348+6257~30~ubuntu14.04.1-product) date jeu. 15 oct. 2015 23:40:22 CEST*
%MOMM*%
G01*
G04 APERTURE LIST*
%ADD10C,0.100000*%
%ADD11R,0.750000X0.800000*%
%ADD12R,0.800000X0.750000*%
%ADD13R,2.032000X2.032000*%
%ADD14O,2.032000X2.032000*%
%ADD15R,1.727200X2.032000*%
%ADD16O,1.727200X2.032000*%
%ADD17R,2.235200X2.235200*%
%ADD18R,2.032000X1.727200*%
%ADD19O,2.032000X1.727200*%
%ADD20R,0.900000X0.500000*%
%ADD21R,1.450000X0.700000*%
%ADD22R,0.300000X1.200000*%
%ADD23C,3.000000*%
%ADD24C,1.501140*%
%ADD25C,0.600000*%
%ADD26C,0.250000*%
%ADD27C,0.350000*%
%ADD28C,0.254000*%
G04 APERTURE END LIST*
D10*
D11*
X136500000Y-107750000D03*
X136500000Y-109250000D03*
X136500000Y-112750000D03*
X136500000Y-111250000D03*
D12*
X122250000Y-112000000D03*
X123750000Y-112000000D03*
D13*
X129540000Y-104140000D03*
D14*
X132080000Y-104140000D03*
D15*
X118110000Y-119380000D03*
D16*
X120650000Y-119380000D03*
X123190000Y-119380000D03*
X125730000Y-119380000D03*
X128270000Y-119380000D03*
X130810000Y-119380000D03*
X133350000Y-119380000D03*
X135890000Y-119380000D03*
X138430000Y-119380000D03*
X140970000Y-119380000D03*
X143510000Y-119380000D03*
X146050000Y-119380000D03*
X148590000Y-119380000D03*
D17*
X115570000Y-119380000D03*
D13*
X139700000Y-104140000D03*
D14*
X137160000Y-104140000D03*
D13*
X115570000Y-104140000D03*
D14*
X115570000Y-106680000D03*
D15*
X151130000Y-119380000D03*
D16*
X153670000Y-119380000D03*
X156210000Y-119380000D03*
D18*
X156210000Y-111760000D03*
D19*
X156210000Y-109220000D03*
X156210000Y-106680000D03*
X156210000Y-104140000D03*
D18*
X147320000Y-111760000D03*
D19*
X147320000Y-109220000D03*
X147320000Y-106680000D03*
X147320000Y-104140000D03*
D20*
X143500000Y-103750000D03*
X143500000Y-105250000D03*
X122500000Y-108250000D03*
X122500000Y-109750000D03*
D21*
X120075000Y-110000000D03*
X114925000Y-110000000D03*
X114925000Y-112000000D03*
X120075000Y-112000000D03*
D22*
X133275000Y-113800000D03*
X133925000Y-113800000D03*
X132625000Y-113800000D03*
X131975000Y-113800000D03*
X131325000Y-113800000D03*
X130675000Y-113800000D03*
X130025000Y-113800000D03*
X129375000Y-113800000D03*
X128075000Y-108200000D03*
X128725000Y-108200000D03*
X129375000Y-108200000D03*
X130025000Y-108200000D03*
X133925000Y-108200000D03*
X133275000Y-108200000D03*
X132625000Y-108200000D03*
X131975000Y-108200000D03*
X131325000Y-108200000D03*
X130675000Y-108200000D03*
X128725000Y-113800000D03*
X128075000Y-113800000D03*
D23*
X120000000Y-104000000D03*
X156000000Y-115500000D03*
X152000000Y-104000000D03*
X116000000Y-115500000D03*
D24*
X140000000Y-109309060D03*
X140000000Y-114190940D03*
D25*
X130250000Y-112000000D03*
X121000000Y-107000000D03*
X137500000Y-110500000D03*
X124000000Y-110500000D03*
X125500000Y-106000000D03*
X132250000Y-107000000D03*
X118000000Y-112000000D03*
X128500000Y-110000000D03*
X124000000Y-108500000D03*
X152000000Y-113500000D03*
X151500000Y-115500000D03*
X143000000Y-113500000D03*
X142500000Y-117500000D03*
X144000000Y-113500000D03*
X143500000Y-117000000D03*
X151000000Y-112500000D03*
X147000000Y-117500000D03*
X150000000Y-112500000D03*
X148750000Y-115750000D03*
D26*
X136500000Y-107750000D02*
X138440940Y-107750000D01*
X138440940Y-107750000D02*
X140000000Y-109309060D01*
X133275000Y-108200000D02*
X133275000Y-109275000D01*
X135750000Y-107750000D02*
X136500000Y-107750000D01*
X135000000Y-108500000D02*
X135750000Y-107750000D01*
X135000000Y-109000000D02*
X135000000Y-108500000D01*
X134500000Y-109500000D02*
X135000000Y-109000000D01*
X133500000Y-109500000D02*
X134500000Y-109500000D01*
X133275000Y-109275000D02*
X133500000Y-109500000D01*
D27*
X130675000Y-113800000D02*
X130675000Y-112425000D01*
X130675000Y-112425000D02*
X130250000Y-112000000D01*
D26*
X136500000Y-109250000D02*
X136500000Y-111250000D01*
X137500000Y-110500000D02*
X136500000Y-109500000D01*
X136500000Y-109500000D02*
X136500000Y-109250000D01*
X114925000Y-110000000D02*
X120075000Y-110000000D01*
X115570000Y-106680000D02*
X115570000Y-109355000D01*
X115570000Y-109355000D02*
X114925000Y-110000000D01*
X123750000Y-110750000D02*
X123750000Y-112000000D01*
X124000000Y-110500000D02*
X123750000Y-110750000D01*
X136500000Y-112750000D02*
X138559060Y-112750000D01*
X138559060Y-112750000D02*
X140000000Y-114190940D01*
X132625000Y-108200000D02*
X132625000Y-109625000D01*
X135500000Y-111750000D02*
X136500000Y-112750000D01*
X135500000Y-111000000D02*
X135500000Y-111750000D01*
X134500000Y-110000000D02*
X135500000Y-111000000D01*
X133000000Y-110000000D02*
X134500000Y-110000000D01*
X132625000Y-109625000D02*
X133000000Y-110000000D01*
X136500000Y-112750000D02*
X136250000Y-112750000D01*
X131975000Y-108200000D02*
X131975000Y-107275000D01*
X131975000Y-107275000D02*
X132250000Y-107000000D01*
X122500000Y-109750000D02*
X123750000Y-109750000D01*
X123750000Y-109750000D02*
X125500000Y-108000000D01*
X125500000Y-108000000D02*
X125500000Y-106500000D01*
X125500000Y-106500000D02*
X125500000Y-106000000D01*
X132225000Y-107025000D02*
X132250000Y-107000000D01*
X122250000Y-112000000D02*
X122250000Y-110750000D01*
X122500000Y-110500000D02*
X122500000Y-109750000D01*
X122250000Y-110750000D02*
X122500000Y-110500000D01*
X120075000Y-112000000D02*
X122250000Y-112000000D01*
X114925000Y-112000000D02*
X118000000Y-112000000D01*
X120075000Y-112000000D02*
X118000000Y-112000000D01*
D27*
X131325000Y-113800000D02*
X131325000Y-111325000D01*
X123750000Y-108250000D02*
X122500000Y-108250000D01*
X123750000Y-108250000D02*
X124000000Y-108500000D01*
X130000000Y-110000000D02*
X128500000Y-110000000D01*
X131325000Y-111325000D02*
X130000000Y-110000000D01*
D26*
X143500000Y-103750000D02*
X143500000Y-103500000D01*
D27*
X143500000Y-103500000D02*
X144500000Y-102500000D01*
X149500000Y-109580000D02*
X147320000Y-111760000D01*
X149500000Y-103000000D02*
X149500000Y-109580000D01*
X149000000Y-102500000D02*
X149500000Y-103000000D01*
X144500000Y-102500000D02*
X149000000Y-102500000D01*
X129540000Y-104140000D02*
X129540000Y-102960000D01*
X142250000Y-102500000D02*
X143500000Y-103750000D01*
X130000000Y-102500000D02*
X142250000Y-102500000D01*
X129540000Y-102960000D02*
X130000000Y-102500000D01*
X122500000Y-108250000D02*
X122500000Y-106000000D01*
X124360000Y-104140000D02*
X129540000Y-104140000D01*
X122500000Y-106000000D02*
X124360000Y-104140000D01*
D26*
X115570000Y-104140000D02*
X116140000Y-104140000D01*
D27*
X116140000Y-104140000D02*
X120250000Y-108250000D01*
X120250000Y-108250000D02*
X122500000Y-108250000D01*
X151130000Y-119380000D02*
X151130000Y-115870000D01*
X151500000Y-115500000D02*
X151130000Y-115870000D01*
D26*
X156210000Y-111760000D02*
X156210000Y-111790000D01*
D27*
X156210000Y-111790000D02*
X154500000Y-113500000D01*
X154500000Y-113500000D02*
X152000000Y-113500000D01*
X152000000Y-113500000D02*
X149060000Y-113500000D01*
X149060000Y-113500000D02*
X147320000Y-111760000D01*
X141250000Y-115250000D02*
X141249994Y-115250000D01*
X135000000Y-113750000D02*
X135500000Y-114250000D01*
X131325000Y-108200000D02*
X131325000Y-109325000D01*
X135000000Y-113500000D02*
X135000000Y-113000000D01*
X135000000Y-113000000D02*
X135000000Y-112500000D01*
X135000000Y-112500000D02*
X133500000Y-111000000D01*
X133500000Y-111000000D02*
X133000000Y-111000000D01*
X133000000Y-111000000D02*
X132000000Y-110000000D01*
X131325000Y-109325000D02*
X132000000Y-110000000D01*
X135000000Y-113500000D02*
X135000000Y-113750000D01*
X141750000Y-114750000D02*
X141250000Y-115250000D01*
X153670000Y-116170000D02*
X153670000Y-119380000D01*
X152250000Y-114750000D02*
X153670000Y-116170000D01*
X152250000Y-114750000D02*
X141750000Y-114750000D01*
X137350000Y-114250000D02*
X135500000Y-114250000D01*
X138600000Y-115500000D02*
X137350000Y-114250000D01*
X140999994Y-115500000D02*
X138600000Y-115500000D01*
X141249994Y-115250000D02*
X140999994Y-115500000D01*
X131325000Y-108200000D02*
X131325000Y-106675000D01*
X132080000Y-105920000D02*
X132080000Y-104140000D01*
X131325000Y-106675000D02*
X132080000Y-105920000D01*
D26*
X118110000Y-119380000D02*
X118110000Y-119140000D01*
X118110000Y-119140000D02*
X120000000Y-117250000D01*
X130675000Y-108200000D02*
X130675000Y-106925000D01*
X122750000Y-117250000D02*
X120000000Y-117250000D01*
X125000000Y-115000000D02*
X122750000Y-117250000D01*
X125000000Y-109500000D02*
X125000000Y-115000000D01*
X126000000Y-108500000D02*
X125000000Y-109500000D01*
X126000000Y-106750000D02*
X126000000Y-108500000D01*
X127000000Y-105750000D02*
X126000000Y-106750000D01*
X129500000Y-105750000D02*
X127000000Y-105750000D01*
X130675000Y-106925000D02*
X129500000Y-105750000D01*
X130025000Y-108200000D02*
X130025000Y-107025000D01*
X122280000Y-117750000D02*
X120650000Y-119380000D01*
X123250000Y-117750000D02*
X122280000Y-117750000D01*
X125500000Y-115500000D02*
X123250000Y-117750000D01*
X125500000Y-109750000D02*
X125500000Y-115500000D01*
X126500000Y-108750000D02*
X125500000Y-109750000D01*
X126500000Y-107000000D02*
X126500000Y-108750000D01*
X127250000Y-106250000D02*
X126500000Y-107000000D01*
X129250000Y-106250000D02*
X127250000Y-106250000D01*
X130025000Y-107025000D02*
X129250000Y-106250000D01*
X123190000Y-119380000D02*
X123190000Y-118810000D01*
X123190000Y-118810000D02*
X124250000Y-117750000D01*
X129375000Y-108200000D02*
X129375000Y-107125000D01*
X126049998Y-115950002D02*
X124250000Y-117750000D01*
X126049998Y-109950002D02*
X126049998Y-115950002D01*
X127000000Y-109000000D02*
X126049998Y-109950002D01*
X127000000Y-107250000D02*
X127000000Y-109000000D01*
X127500000Y-106750000D02*
X127000000Y-107250000D01*
X129000000Y-106750000D02*
X127500000Y-106750000D01*
X129375000Y-107125000D02*
X129000000Y-106750000D01*
X125730000Y-119380000D02*
X125730000Y-117270000D01*
X128725000Y-107475000D02*
X128500000Y-107250000D01*
X128500000Y-107250000D02*
X127750000Y-107250000D01*
X127750000Y-107250000D02*
X127500000Y-107500000D01*
X127500000Y-107500000D02*
X127500000Y-109250000D01*
X127500000Y-109250000D02*
X126500000Y-110250000D01*
X126500000Y-110250000D02*
X126500000Y-116500000D01*
X128725000Y-107475000D02*
X128725000Y-108200000D01*
X125730000Y-117270000D02*
X126500000Y-116500000D01*
X128270000Y-119380000D02*
X128270000Y-117270000D01*
X128075000Y-109425000D02*
X127000000Y-110500000D01*
X127000000Y-110500000D02*
X127000000Y-116000000D01*
X127000000Y-116000000D02*
X127500000Y-116500000D01*
X128075000Y-109425000D02*
X128075000Y-108200000D01*
X128270000Y-117270000D02*
X127500000Y-116500000D01*
X130810000Y-119380000D02*
X130810000Y-118310000D01*
X128075000Y-115575000D02*
X129000000Y-116500000D01*
X128075000Y-115575000D02*
X128075000Y-113800000D01*
X130810000Y-118310000D02*
X129000000Y-116500000D01*
X128725000Y-113800000D02*
X128725000Y-115225000D01*
X133350000Y-118300002D02*
X133049998Y-118000000D01*
X133049998Y-118000000D02*
X131500000Y-118000000D01*
X131500000Y-118000000D02*
X130000000Y-116500000D01*
X133350000Y-118300002D02*
X133350000Y-119380000D01*
X128725000Y-115225000D02*
X130000000Y-116500000D01*
X135890000Y-119380000D02*
X135890000Y-118390000D01*
X135890000Y-118390000D02*
X135000000Y-117500000D01*
X135000000Y-117500000D02*
X134500000Y-117500000D01*
X129375000Y-113800000D02*
X129375000Y-114875000D01*
X132000000Y-117500000D02*
X134500000Y-117500000D01*
X134500000Y-117500000D02*
X134500000Y-117500000D01*
X129375000Y-114875000D02*
X132000000Y-117500000D01*
X136000000Y-117000000D02*
X136050000Y-117000000D01*
X136000000Y-117000000D02*
X135500000Y-117000000D01*
X130025000Y-113800000D02*
X130025000Y-114525000D01*
X132500000Y-117000000D02*
X135500000Y-117000000D01*
X130025000Y-114525000D02*
X132500000Y-117000000D01*
X136050000Y-117000000D02*
X138430000Y-119380000D01*
X147320000Y-106680000D02*
X145500000Y-108500000D01*
X143000000Y-111000000D02*
X145500000Y-108500000D01*
X143000000Y-113500000D02*
X143000000Y-111000000D01*
X142500000Y-117500000D02*
X141500000Y-118850000D01*
X141500000Y-118850000D02*
X140970000Y-119380000D01*
X136300000Y-116500000D02*
X137300000Y-117500000D01*
X136300000Y-116500000D02*
X133500000Y-116500000D01*
X131975000Y-113800000D02*
X131975000Y-115475000D01*
X133000000Y-116500000D02*
X133500000Y-116500000D01*
X131975000Y-115475000D02*
X133000000Y-116500000D01*
X139090000Y-117500000D02*
X140970000Y-119380000D01*
X137300000Y-117500000D02*
X139090000Y-117500000D01*
X137950002Y-117000000D02*
X137600000Y-117000000D01*
X137950002Y-117000000D02*
X141750000Y-117000000D01*
X141750000Y-117000000D02*
X142000000Y-116750000D01*
X142000000Y-116750000D02*
X143250000Y-116750000D01*
X143500000Y-117000000D02*
X143250000Y-116750000D01*
X136600000Y-116000000D02*
X133500000Y-116000000D01*
X137600000Y-117000000D02*
X136600000Y-116000000D01*
X133500000Y-116000000D02*
X133450002Y-116000000D01*
X133450002Y-116000000D02*
X132625000Y-115174998D01*
X132625000Y-115174998D02*
X132625000Y-113800000D01*
X133500000Y-116000000D02*
X133549998Y-116000000D01*
X143510000Y-119380000D02*
X143510000Y-116990000D01*
X143500000Y-117000000D02*
X143510000Y-116990000D01*
X147320000Y-109220000D02*
X146280000Y-109220000D01*
X144000000Y-111500000D02*
X144000000Y-113500000D01*
X146280000Y-109220000D02*
X144000000Y-111500000D01*
X146050000Y-119380000D02*
X146050000Y-118300000D01*
X133275000Y-114824998D02*
X133950002Y-115500000D01*
X133950002Y-115500000D02*
X136900000Y-115500000D01*
X136900000Y-115500000D02*
X137400000Y-116000000D01*
X133275000Y-114824998D02*
X133275000Y-113800000D01*
X137949998Y-116549998D02*
X137400000Y-116000000D01*
X141500000Y-116549998D02*
X137949998Y-116549998D01*
X141799998Y-116250000D02*
X141500000Y-116549998D01*
X144000000Y-116250000D02*
X141799998Y-116250000D01*
X146050000Y-118300000D02*
X144000000Y-116250000D01*
X146050000Y-119380000D02*
X146050000Y-118450000D01*
X146050000Y-118450000D02*
X147000000Y-117500000D01*
X153280000Y-109220000D02*
X156210000Y-109220000D01*
X151000000Y-111500000D02*
X153280000Y-109220000D01*
X151000000Y-112500000D02*
X151000000Y-111500000D01*
X156210000Y-109220000D02*
X155280000Y-109220000D01*
X146050000Y-119380000D02*
X146050000Y-118950000D01*
X148590000Y-119380000D02*
X148590000Y-117590000D01*
X133925000Y-114425000D02*
X134500000Y-115000000D01*
X134500000Y-115000000D02*
X135500000Y-115000000D01*
X137200000Y-115000000D02*
X135500000Y-115000000D01*
X137700000Y-115500000D02*
X137200000Y-115000000D01*
X133925000Y-114425000D02*
X133925000Y-113800000D01*
X138299996Y-116099996D02*
X137700000Y-115500000D01*
X141250000Y-116099996D02*
X138299996Y-116099996D01*
X141599996Y-115750000D02*
X141250000Y-116099996D01*
X144250000Y-115750000D02*
X141599996Y-115750000D01*
X145000000Y-116500000D02*
X144250000Y-115750000D01*
X147500000Y-116500000D02*
X145000000Y-116500000D01*
X148590000Y-117590000D02*
X147500000Y-116500000D01*
X148590000Y-115910000D02*
X148590000Y-117500000D01*
X148590000Y-117500000D02*
X148590000Y-119380000D01*
X148590000Y-115910000D02*
X148750000Y-115750000D01*
X153320000Y-106680000D02*
X156210000Y-106680000D01*
X150000000Y-110000000D02*
X153320000Y-106680000D01*
X150000000Y-112500000D02*
X150000000Y-110000000D01*
X148590000Y-115910000D02*
X148750000Y-115750000D01*
X139700000Y-104140000D02*
X141140000Y-104140000D01*
X142250000Y-105250000D02*
X143500000Y-105250000D01*
X141140000Y-104140000D02*
X142250000Y-105250000D01*
X133925000Y-108200000D02*
X133925000Y-107075000D01*
X139700000Y-105800000D02*
X139000000Y-106500000D01*
X139000000Y-106500000D02*
X135500000Y-106500000D01*
X139700000Y-105800000D02*
X139700000Y-104140000D01*
X134500000Y-106500000D02*
X135500000Y-106500000D01*
X133925000Y-107075000D02*
X134500000Y-106500000D01*
X140090000Y-103750000D02*
X139700000Y-104140000D01*
D28*
G36*
X154789041Y-117308909D02*
X155573459Y-117634628D01*
X156422815Y-117635370D01*
X157207800Y-117311020D01*
X157290000Y-117228963D01*
X157290000Y-118228453D01*
X157112036Y-118029268D01*
X156584791Y-117775291D01*
X156569026Y-117772642D01*
X156337000Y-117893783D01*
X156337000Y-119253000D01*
X156357000Y-119253000D01*
X156357000Y-119507000D01*
X156337000Y-119507000D01*
X156337000Y-119527000D01*
X156083000Y-119527000D01*
X156083000Y-119507000D01*
X156063000Y-119507000D01*
X156063000Y-119253000D01*
X156083000Y-119253000D01*
X156083000Y-117893783D01*
X155850974Y-117772642D01*
X155835209Y-117775291D01*
X155307964Y-118029268D01*
X154936461Y-118445069D01*
X154729670Y-118135585D01*
X154480000Y-117968761D01*
X154480000Y-116999328D01*
X154789041Y-117308909D01*
X154789041Y-117308909D01*
G37*
X154789041Y-117308909D02*
X155573459Y-117634628D01*
X156422815Y-117635370D01*
X157207800Y-117311020D01*
X157290000Y-117228963D01*
X157290000Y-118228453D01*
X157112036Y-118029268D01*
X156584791Y-117775291D01*
X156569026Y-117772642D01*
X156337000Y-117893783D01*
X156337000Y-119253000D01*
X156357000Y-119253000D01*
X156357000Y-119507000D01*
X156337000Y-119507000D01*
X156337000Y-119527000D01*
X156083000Y-119527000D01*
X156083000Y-119507000D01*
X156063000Y-119507000D01*
X156063000Y-119253000D01*
X156083000Y-119253000D01*
X156083000Y-117893783D01*
X155850974Y-117772642D01*
X155835209Y-117775291D01*
X155307964Y-118029268D01*
X154936461Y-118445069D01*
X154729670Y-118135585D01*
X154480000Y-117968761D01*
X154480000Y-116999328D01*
X154789041Y-117308909D01*
G36*
X115697000Y-119253000D02*
X115717000Y-119253000D01*
X115717000Y-119507000D01*
X115697000Y-119507000D01*
X115697000Y-119527000D01*
X115443000Y-119527000D01*
X115443000Y-119507000D01*
X115423000Y-119507000D01*
X115423000Y-119253000D01*
X115443000Y-119253000D01*
X115443000Y-119233000D01*
X115697000Y-119233000D01*
X115697000Y-119253000D01*
X115697000Y-119253000D01*
G37*
X115697000Y-119253000D02*
X115717000Y-119253000D01*
X115717000Y-119507000D01*
X115697000Y-119507000D01*
X115697000Y-119527000D01*
X115443000Y-119527000D01*
X115443000Y-119507000D01*
X115423000Y-119507000D01*
X115423000Y-119253000D01*
X115443000Y-119253000D01*
X115443000Y-119233000D01*
X115697000Y-119233000D01*
X115697000Y-119253000D01*
G36*
X124240000Y-110990000D02*
X124035750Y-110990000D01*
X123877000Y-111148750D01*
X123877000Y-111873000D01*
X123897000Y-111873000D01*
X123897000Y-112127000D01*
X123877000Y-112127000D01*
X123877000Y-112851250D01*
X124035750Y-113010000D01*
X124240000Y-113010000D01*
X124240000Y-114685198D01*
X122435198Y-116490000D01*
X120000000Y-116490000D01*
X119709161Y-116547852D01*
X119462599Y-116712599D01*
X118458638Y-117716560D01*
X117246400Y-117716560D01*
X117072506Y-117749281D01*
X117047298Y-117724073D01*
X116813909Y-117627400D01*
X116442104Y-117627400D01*
X117207800Y-117311020D01*
X117808909Y-116710959D01*
X118134628Y-115926541D01*
X118135370Y-115077185D01*
X117811020Y-114292200D01*
X117210959Y-113691091D01*
X116426541Y-113365372D01*
X115577185Y-113364630D01*
X114792200Y-113688980D01*
X114710000Y-113771037D01*
X114710000Y-112997440D01*
X115650000Y-112997440D01*
X115885317Y-112953162D01*
X116101441Y-112814090D01*
X116138399Y-112760000D01*
X117437537Y-112760000D01*
X117469673Y-112792192D01*
X117813201Y-112934838D01*
X118185167Y-112935162D01*
X118528943Y-112793117D01*
X118562118Y-112760000D01*
X118859243Y-112760000D01*
X118885910Y-112801441D01*
X119098110Y-112946431D01*
X119350000Y-112997440D01*
X120800000Y-112997440D01*
X121035317Y-112953162D01*
X121251441Y-112814090D01*
X121288399Y-112760000D01*
X121343156Y-112760000D01*
X121385910Y-112826441D01*
X121598110Y-112971431D01*
X121850000Y-113022440D01*
X122650000Y-113022440D01*
X122885317Y-112978162D01*
X122988646Y-112911671D01*
X122990302Y-112913327D01*
X123223691Y-113010000D01*
X123464250Y-113010000D01*
X123623000Y-112851250D01*
X123623000Y-112127000D01*
X123603000Y-112127000D01*
X123603000Y-111873000D01*
X123623000Y-111873000D01*
X123623000Y-111148750D01*
X123464250Y-110990000D01*
X123223691Y-110990000D01*
X123010000Y-111078514D01*
X123010000Y-111064802D01*
X123037401Y-111037401D01*
X123202148Y-110790840D01*
X123247430Y-110563193D01*
X123330095Y-110510000D01*
X123750000Y-110510000D01*
X124040839Y-110452148D01*
X124240000Y-110319073D01*
X124240000Y-110990000D01*
X124240000Y-110990000D01*
G37*
X124240000Y-110990000D02*
X124035750Y-110990000D01*
X123877000Y-111148750D01*
X123877000Y-111873000D01*
X123897000Y-111873000D01*
X123897000Y-112127000D01*
X123877000Y-112127000D01*
X123877000Y-112851250D01*
X124035750Y-113010000D01*
X124240000Y-113010000D01*
X124240000Y-114685198D01*
X122435198Y-116490000D01*
X120000000Y-116490000D01*
X119709161Y-116547852D01*
X119462599Y-116712599D01*
X118458638Y-117716560D01*
X117246400Y-117716560D01*
X117072506Y-117749281D01*
X117047298Y-117724073D01*
X116813909Y-117627400D01*
X116442104Y-117627400D01*
X117207800Y-117311020D01*
X117808909Y-116710959D01*
X118134628Y-115926541D01*
X118135370Y-115077185D01*
X117811020Y-114292200D01*
X117210959Y-113691091D01*
X116426541Y-113365372D01*
X115577185Y-113364630D01*
X114792200Y-113688980D01*
X114710000Y-113771037D01*
X114710000Y-112997440D01*
X115650000Y-112997440D01*
X115885317Y-112953162D01*
X116101441Y-112814090D01*
X116138399Y-112760000D01*
X117437537Y-112760000D01*
X117469673Y-112792192D01*
X117813201Y-112934838D01*
X118185167Y-112935162D01*
X118528943Y-112793117D01*
X118562118Y-112760000D01*
X118859243Y-112760000D01*
X118885910Y-112801441D01*
X119098110Y-112946431D01*
X119350000Y-112997440D01*
X120800000Y-112997440D01*
X121035317Y-112953162D01*
X121251441Y-112814090D01*
X121288399Y-112760000D01*
X121343156Y-112760000D01*
X121385910Y-112826441D01*
X121598110Y-112971431D01*
X121850000Y-113022440D01*
X122650000Y-113022440D01*
X122885317Y-112978162D01*
X122988646Y-112911671D01*
X122990302Y-112913327D01*
X123223691Y-113010000D01*
X123464250Y-113010000D01*
X123623000Y-112851250D01*
X123623000Y-112127000D01*
X123603000Y-112127000D01*
X123603000Y-111873000D01*
X123623000Y-111873000D01*
X123623000Y-111148750D01*
X123464250Y-110990000D01*
X123223691Y-110990000D01*
X123010000Y-111078514D01*
X123010000Y-111064802D01*
X123037401Y-111037401D01*
X123202148Y-110790840D01*
X123247430Y-110563193D01*
X123330095Y-110510000D01*
X123750000Y-110510000D01*
X124040839Y-110452148D01*
X124240000Y-110319073D01*
X124240000Y-110990000D01*
G36*
X145715291Y-103765209D02*
X145712642Y-103780974D01*
X145833783Y-104013000D01*
X147193000Y-104013000D01*
X147193000Y-103993000D01*
X147447000Y-103993000D01*
X147447000Y-104013000D01*
X147467000Y-104013000D01*
X147467000Y-104267000D01*
X147447000Y-104267000D01*
X147447000Y-104287000D01*
X147193000Y-104287000D01*
X147193000Y-104267000D01*
X145833783Y-104267000D01*
X145712642Y-104499026D01*
X145715291Y-104514791D01*
X145969268Y-105042036D01*
X146385069Y-105413539D01*
X146075585Y-105620330D01*
X145750729Y-106106511D01*
X145636655Y-106680000D01*
X145737619Y-107187579D01*
X142462599Y-110462599D01*
X142297852Y-110709161D01*
X142240000Y-111000000D01*
X142240000Y-112937537D01*
X142207808Y-112969673D01*
X142065162Y-113313201D01*
X142064838Y-113685167D01*
X142170133Y-113940000D01*
X141750000Y-113940000D01*
X141577897Y-113974234D01*
X141440027Y-114001657D01*
X141385704Y-114037954D01*
X141385810Y-113916542D01*
X141175314Y-113407103D01*
X140785887Y-113016996D01*
X140276816Y-112805611D01*
X139725602Y-112805130D01*
X139699696Y-112815834D01*
X139096461Y-112212599D01*
X138849899Y-112047852D01*
X138559060Y-111990000D01*
X137421486Y-111990000D01*
X137510000Y-111776309D01*
X137510000Y-111535750D01*
X137351250Y-111377000D01*
X136627000Y-111377000D01*
X136627000Y-111397000D01*
X136373000Y-111397000D01*
X136373000Y-111377000D01*
X136353000Y-111377000D01*
X136353000Y-111123000D01*
X136373000Y-111123000D01*
X136373000Y-110373750D01*
X136249250Y-110250000D01*
X136373000Y-110126250D01*
X136373000Y-109377000D01*
X136627000Y-109377000D01*
X136627000Y-110126250D01*
X136750750Y-110250000D01*
X136627000Y-110373750D01*
X136627000Y-111123000D01*
X137351250Y-111123000D01*
X137510000Y-110964250D01*
X137510000Y-110723691D01*
X137413327Y-110490302D01*
X137234699Y-110311673D01*
X137085807Y-110250000D01*
X137234699Y-110188327D01*
X137413327Y-110009698D01*
X137510000Y-109776309D01*
X137510000Y-109535750D01*
X137351250Y-109377000D01*
X136627000Y-109377000D01*
X136373000Y-109377000D01*
X136353000Y-109377000D01*
X136353000Y-109123000D01*
X136373000Y-109123000D01*
X136373000Y-109103000D01*
X136627000Y-109103000D01*
X136627000Y-109123000D01*
X137351250Y-109123000D01*
X137510000Y-108964250D01*
X137510000Y-108723691D01*
X137421486Y-108510000D01*
X138126138Y-108510000D01*
X138624562Y-109008424D01*
X138614671Y-109032244D01*
X138614190Y-109583458D01*
X138824686Y-110092897D01*
X139214113Y-110483004D01*
X139723184Y-110694389D01*
X140274398Y-110694870D01*
X140783837Y-110484374D01*
X141173944Y-110094947D01*
X141385329Y-109585876D01*
X141385810Y-109034662D01*
X141175314Y-108525223D01*
X140785887Y-108135116D01*
X140276816Y-107923731D01*
X139725602Y-107923250D01*
X139699696Y-107933954D01*
X139021471Y-107255729D01*
X139290839Y-107202148D01*
X139537401Y-107037401D01*
X140237401Y-106337402D01*
X140352595Y-106165000D01*
X140402148Y-106090839D01*
X140459316Y-105803440D01*
X140716000Y-105803440D01*
X140951317Y-105759162D01*
X141167441Y-105620090D01*
X141312431Y-105407890D01*
X141315910Y-105390712D01*
X141712599Y-105787401D01*
X141959161Y-105952148D01*
X142250000Y-106010000D01*
X142671614Y-106010000D01*
X142798110Y-106096431D01*
X143050000Y-106147440D01*
X143950000Y-106147440D01*
X144185317Y-106103162D01*
X144401441Y-105964090D01*
X144546431Y-105751890D01*
X144597440Y-105500000D01*
X144597440Y-105000000D01*
X144553162Y-104764683D01*
X144414090Y-104548559D01*
X144344289Y-104500866D01*
X144401441Y-104464090D01*
X144546431Y-104251890D01*
X144597440Y-104000000D01*
X144597440Y-103548073D01*
X144835513Y-103310000D01*
X145934568Y-103310000D01*
X145715291Y-103765209D01*
X145715291Y-103765209D01*
G37*
X145715291Y-103765209D02*
X145712642Y-103780974D01*
X145833783Y-104013000D01*
X147193000Y-104013000D01*
X147193000Y-103993000D01*
X147447000Y-103993000D01*
X147447000Y-104013000D01*
X147467000Y-104013000D01*
X147467000Y-104267000D01*
X147447000Y-104267000D01*
X147447000Y-104287000D01*
X147193000Y-104287000D01*
X147193000Y-104267000D01*
X145833783Y-104267000D01*
X145712642Y-104499026D01*
X145715291Y-104514791D01*
X145969268Y-105042036D01*
X146385069Y-105413539D01*
X146075585Y-105620330D01*
X145750729Y-106106511D01*
X145636655Y-106680000D01*
X145737619Y-107187579D01*
X142462599Y-110462599D01*
X142297852Y-110709161D01*
X142240000Y-111000000D01*
X142240000Y-112937537D01*
X142207808Y-112969673D01*
X142065162Y-113313201D01*
X142064838Y-113685167D01*
X142170133Y-113940000D01*
X141750000Y-113940000D01*
X141577897Y-113974234D01*
X141440027Y-114001657D01*
X141385704Y-114037954D01*
X141385810Y-113916542D01*
X141175314Y-113407103D01*
X140785887Y-113016996D01*
X140276816Y-112805611D01*
X139725602Y-112805130D01*
X139699696Y-112815834D01*
X139096461Y-112212599D01*
X138849899Y-112047852D01*
X138559060Y-111990000D01*
X137421486Y-111990000D01*
X137510000Y-111776309D01*
X137510000Y-111535750D01*
X137351250Y-111377000D01*
X136627000Y-111377000D01*
X136627000Y-111397000D01*
X136373000Y-111397000D01*
X136373000Y-111377000D01*
X136353000Y-111377000D01*
X136353000Y-111123000D01*
X136373000Y-111123000D01*
X136373000Y-110373750D01*
X136249250Y-110250000D01*
X136373000Y-110126250D01*
X136373000Y-109377000D01*
X136627000Y-109377000D01*
X136627000Y-110126250D01*
X136750750Y-110250000D01*
X136627000Y-110373750D01*
X136627000Y-111123000D01*
X137351250Y-111123000D01*
X137510000Y-110964250D01*
X137510000Y-110723691D01*
X137413327Y-110490302D01*
X137234699Y-110311673D01*
X137085807Y-110250000D01*
X137234699Y-110188327D01*
X137413327Y-110009698D01*
X137510000Y-109776309D01*
X137510000Y-109535750D01*
X137351250Y-109377000D01*
X136627000Y-109377000D01*
X136373000Y-109377000D01*
X136353000Y-109377000D01*
X136353000Y-109123000D01*
X136373000Y-109123000D01*
X136373000Y-109103000D01*
X136627000Y-109103000D01*
X136627000Y-109123000D01*
X137351250Y-109123000D01*
X137510000Y-108964250D01*
X137510000Y-108723691D01*
X137421486Y-108510000D01*
X138126138Y-108510000D01*
X138624562Y-109008424D01*
X138614671Y-109032244D01*
X138614190Y-109583458D01*
X138824686Y-110092897D01*
X139214113Y-110483004D01*
X139723184Y-110694389D01*
X140274398Y-110694870D01*
X140783837Y-110484374D01*
X141173944Y-110094947D01*
X141385329Y-109585876D01*
X141385810Y-109034662D01*
X141175314Y-108525223D01*
X140785887Y-108135116D01*
X140276816Y-107923731D01*
X139725602Y-107923250D01*
X139699696Y-107933954D01*
X139021471Y-107255729D01*
X139290839Y-107202148D01*
X139537401Y-107037401D01*
X140237401Y-106337402D01*
X140352595Y-106165000D01*
X140402148Y-106090839D01*
X140459316Y-105803440D01*
X140716000Y-105803440D01*
X140951317Y-105759162D01*
X141167441Y-105620090D01*
X141312431Y-105407890D01*
X141315910Y-105390712D01*
X141712599Y-105787401D01*
X141959161Y-105952148D01*
X142250000Y-106010000D01*
X142671614Y-106010000D01*
X142798110Y-106096431D01*
X143050000Y-106147440D01*
X143950000Y-106147440D01*
X144185317Y-106103162D01*
X144401441Y-105964090D01*
X144546431Y-105751890D01*
X144597440Y-105500000D01*
X144597440Y-105000000D01*
X144553162Y-104764683D01*
X144414090Y-104548559D01*
X144344289Y-104500866D01*
X144401441Y-104464090D01*
X144546431Y-104251890D01*
X144597440Y-104000000D01*
X144597440Y-103548073D01*
X144835513Y-103310000D01*
X145934568Y-103310000D01*
X145715291Y-103765209D01*
G36*
X127969673Y-110792192D02*
X128313201Y-110934838D01*
X128685167Y-110935162D01*
X128988083Y-110810000D01*
X129664488Y-110810000D01*
X130515000Y-111660513D01*
X130515000Y-112638750D01*
X130441250Y-112565000D01*
X130398690Y-112565000D01*
X130345411Y-112587069D01*
X130175000Y-112552560D01*
X129875000Y-112552560D01*
X129693576Y-112586697D01*
X129525000Y-112552560D01*
X129225000Y-112552560D01*
X129043576Y-112586697D01*
X128875000Y-112552560D01*
X128575000Y-112552560D01*
X128393576Y-112586697D01*
X128225000Y-112552560D01*
X127925000Y-112552560D01*
X127760000Y-112583607D01*
X127760000Y-110814802D01*
X127876223Y-110698579D01*
X127969673Y-110792192D01*
X127969673Y-110792192D01*
G37*
X127969673Y-110792192D02*
X128313201Y-110934838D01*
X128685167Y-110935162D01*
X128988083Y-110810000D01*
X129664488Y-110810000D01*
X130515000Y-111660513D01*
X130515000Y-112638750D01*
X130441250Y-112565000D01*
X130398690Y-112565000D01*
X130345411Y-112587069D01*
X130175000Y-112552560D01*
X129875000Y-112552560D01*
X129693576Y-112586697D01*
X129525000Y-112552560D01*
X129225000Y-112552560D01*
X129043576Y-112586697D01*
X128875000Y-112552560D01*
X128575000Y-112552560D01*
X128393576Y-112586697D01*
X128225000Y-112552560D01*
X127925000Y-112552560D01*
X127760000Y-112583607D01*
X127760000Y-110814802D01*
X127876223Y-110698579D01*
X127969673Y-110792192D01*
G36*
X119677244Y-108822757D02*
X119940027Y-108998343D01*
X120023771Y-109015000D01*
X119947998Y-109015000D01*
X119947998Y-109173748D01*
X119789250Y-109015000D01*
X119223691Y-109015000D01*
X118990302Y-109111673D01*
X118811673Y-109290301D01*
X118715000Y-109523690D01*
X118715000Y-109714250D01*
X118873750Y-109873000D01*
X119948000Y-109873000D01*
X119948000Y-109853000D01*
X120202000Y-109853000D01*
X120202000Y-109873000D01*
X120222000Y-109873000D01*
X120222000Y-110127000D01*
X120202000Y-110127000D01*
X120202000Y-110826250D01*
X120360750Y-110985000D01*
X120926309Y-110985000D01*
X121159698Y-110888327D01*
X121338327Y-110709699D01*
X121435000Y-110476310D01*
X121435000Y-110285750D01*
X121276252Y-110127002D01*
X121426457Y-110127002D01*
X121446838Y-110235317D01*
X121569770Y-110426359D01*
X121547852Y-110459161D01*
X121490000Y-110750000D01*
X121490000Y-111102069D01*
X121398559Y-111160910D01*
X121344519Y-111240000D01*
X121290757Y-111240000D01*
X121264090Y-111198559D01*
X121051890Y-111053569D01*
X120800000Y-111002560D01*
X119350000Y-111002560D01*
X119114683Y-111046838D01*
X118898559Y-111185910D01*
X118861601Y-111240000D01*
X118562463Y-111240000D01*
X118530327Y-111207808D01*
X118186799Y-111065162D01*
X117814833Y-111064838D01*
X117471057Y-111206883D01*
X117437882Y-111240000D01*
X116140757Y-111240000D01*
X116114090Y-111198559D01*
X115901890Y-111053569D01*
X115650000Y-111002560D01*
X114710000Y-111002560D01*
X114710000Y-110914250D01*
X114798000Y-110826250D01*
X114798000Y-110127000D01*
X115052000Y-110127000D01*
X115052000Y-110826250D01*
X115210750Y-110985000D01*
X115776309Y-110985000D01*
X116009698Y-110888327D01*
X116188327Y-110709699D01*
X116285000Y-110476310D01*
X116285000Y-110285750D01*
X118715000Y-110285750D01*
X118715000Y-110476310D01*
X118811673Y-110709699D01*
X118990302Y-110888327D01*
X119223691Y-110985000D01*
X119789250Y-110985000D01*
X119948000Y-110826250D01*
X119948000Y-110127000D01*
X118873750Y-110127000D01*
X118715000Y-110285750D01*
X116285000Y-110285750D01*
X116126250Y-110127000D01*
X115052000Y-110127000D01*
X114798000Y-110127000D01*
X114778000Y-110127000D01*
X114778000Y-109873000D01*
X114798000Y-109873000D01*
X114798000Y-109173750D01*
X115052000Y-109173750D01*
X115052000Y-109873000D01*
X116126250Y-109873000D01*
X116285000Y-109714250D01*
X116285000Y-109523690D01*
X116188327Y-109290301D01*
X116009698Y-109111673D01*
X115776309Y-109015000D01*
X115210750Y-109015000D01*
X115052000Y-109173750D01*
X114798000Y-109173750D01*
X114710000Y-109085750D01*
X114710000Y-108066949D01*
X115187054Y-108285983D01*
X115443000Y-108167367D01*
X115443000Y-106807000D01*
X115697000Y-106807000D01*
X115697000Y-108167367D01*
X115952946Y-108285983D01*
X116538379Y-108017188D01*
X116976385Y-107544818D01*
X117175975Y-107062944D01*
X117056836Y-106807000D01*
X115697000Y-106807000D01*
X115443000Y-106807000D01*
X115423000Y-106807000D01*
X115423000Y-106553000D01*
X115443000Y-106553000D01*
X115443000Y-106533000D01*
X115697000Y-106533000D01*
X115697000Y-106553000D01*
X117056836Y-106553000D01*
X117168215Y-106313727D01*
X119677244Y-108822757D01*
X119677244Y-108822757D01*
G37*
X119677244Y-108822757D02*
X119940027Y-108998343D01*
X120023771Y-109015000D01*
X119947998Y-109015000D01*
X119947998Y-109173748D01*
X119789250Y-109015000D01*
X119223691Y-109015000D01*
X118990302Y-109111673D01*
X118811673Y-109290301D01*
X118715000Y-109523690D01*
X118715000Y-109714250D01*
X118873750Y-109873000D01*
X119948000Y-109873000D01*
X119948000Y-109853000D01*
X120202000Y-109853000D01*
X120202000Y-109873000D01*
X120222000Y-109873000D01*
X120222000Y-110127000D01*
X120202000Y-110127000D01*
X120202000Y-110826250D01*
X120360750Y-110985000D01*
X120926309Y-110985000D01*
X121159698Y-110888327D01*
X121338327Y-110709699D01*
X121435000Y-110476310D01*
X121435000Y-110285750D01*
X121276252Y-110127002D01*
X121426457Y-110127002D01*
X121446838Y-110235317D01*
X121569770Y-110426359D01*
X121547852Y-110459161D01*
X121490000Y-110750000D01*
X121490000Y-111102069D01*
X121398559Y-111160910D01*
X121344519Y-111240000D01*
X121290757Y-111240000D01*
X121264090Y-111198559D01*
X121051890Y-111053569D01*
X120800000Y-111002560D01*
X119350000Y-111002560D01*
X119114683Y-111046838D01*
X118898559Y-111185910D01*
X118861601Y-111240000D01*
X118562463Y-111240000D01*
X118530327Y-111207808D01*
X118186799Y-111065162D01*
X117814833Y-111064838D01*
X117471057Y-111206883D01*
X117437882Y-111240000D01*
X116140757Y-111240000D01*
X116114090Y-111198559D01*
X115901890Y-111053569D01*
X115650000Y-111002560D01*
X114710000Y-111002560D01*
X114710000Y-110914250D01*
X114798000Y-110826250D01*
X114798000Y-110127000D01*
X115052000Y-110127000D01*
X115052000Y-110826250D01*
X115210750Y-110985000D01*
X115776309Y-110985000D01*
X116009698Y-110888327D01*
X116188327Y-110709699D01*
X116285000Y-110476310D01*
X116285000Y-110285750D01*
X118715000Y-110285750D01*
X118715000Y-110476310D01*
X118811673Y-110709699D01*
X118990302Y-110888327D01*
X119223691Y-110985000D01*
X119789250Y-110985000D01*
X119948000Y-110826250D01*
X119948000Y-110127000D01*
X118873750Y-110127000D01*
X118715000Y-110285750D01*
X116285000Y-110285750D01*
X116126250Y-110127000D01*
X115052000Y-110127000D01*
X114798000Y-110127000D01*
X114778000Y-110127000D01*
X114778000Y-109873000D01*
X114798000Y-109873000D01*
X114798000Y-109173750D01*
X115052000Y-109173750D01*
X115052000Y-109873000D01*
X116126250Y-109873000D01*
X116285000Y-109714250D01*
X116285000Y-109523690D01*
X116188327Y-109290301D01*
X116009698Y-109111673D01*
X115776309Y-109015000D01*
X115210750Y-109015000D01*
X115052000Y-109173750D01*
X114798000Y-109173750D01*
X114710000Y-109085750D01*
X114710000Y-108066949D01*
X115187054Y-108285983D01*
X115443000Y-108167367D01*
X115443000Y-106807000D01*
X115697000Y-106807000D01*
X115697000Y-108167367D01*
X115952946Y-108285983D01*
X116538379Y-108017188D01*
X116976385Y-107544818D01*
X117175975Y-107062944D01*
X117056836Y-106807000D01*
X115697000Y-106807000D01*
X115443000Y-106807000D01*
X115423000Y-106807000D01*
X115423000Y-106553000D01*
X115443000Y-106553000D01*
X115443000Y-106533000D01*
X115697000Y-106533000D01*
X115697000Y-106553000D01*
X117056836Y-106553000D01*
X117168215Y-106313727D01*
X119677244Y-108822757D01*
G36*
X155295680Y-102848046D02*
X154859268Y-103237964D01*
X154605291Y-103765209D01*
X154602642Y-103780974D01*
X154723783Y-104013000D01*
X156083000Y-104013000D01*
X156083000Y-103993000D01*
X156337000Y-103993000D01*
X156337000Y-104013000D01*
X156357000Y-104013000D01*
X156357000Y-104267000D01*
X156337000Y-104267000D01*
X156337000Y-104287000D01*
X156083000Y-104287000D01*
X156083000Y-104267000D01*
X154723783Y-104267000D01*
X154602642Y-104499026D01*
X154605291Y-104514791D01*
X154859268Y-105042036D01*
X155275069Y-105413539D01*
X154965585Y-105620330D01*
X154765352Y-105920000D01*
X153320000Y-105920000D01*
X153029161Y-105977852D01*
X152782599Y-106142599D01*
X150310000Y-108615198D01*
X150310000Y-105329031D01*
X150789041Y-105808909D01*
X151573459Y-106134628D01*
X152422815Y-106135370D01*
X153207800Y-105811020D01*
X153808909Y-105210959D01*
X154134628Y-104426541D01*
X154135370Y-103577185D01*
X153811020Y-102792200D01*
X153728963Y-102710000D01*
X155690327Y-102710000D01*
X155295680Y-102848046D01*
X155295680Y-102848046D01*
G37*
X155295680Y-102848046D02*
X154859268Y-103237964D01*
X154605291Y-103765209D01*
X154602642Y-103780974D01*
X154723783Y-104013000D01*
X156083000Y-104013000D01*
X156083000Y-103993000D01*
X156337000Y-103993000D01*
X156337000Y-104013000D01*
X156357000Y-104013000D01*
X156357000Y-104267000D01*
X156337000Y-104267000D01*
X156337000Y-104287000D01*
X156083000Y-104287000D01*
X156083000Y-104267000D01*
X154723783Y-104267000D01*
X154602642Y-104499026D01*
X154605291Y-104514791D01*
X154859268Y-105042036D01*
X155275069Y-105413539D01*
X154965585Y-105620330D01*
X154765352Y-105920000D01*
X153320000Y-105920000D01*
X153029161Y-105977852D01*
X152782599Y-106142599D01*
X150310000Y-108615198D01*
X150310000Y-105329031D01*
X150789041Y-105808909D01*
X151573459Y-106134628D01*
X152422815Y-106135370D01*
X153207800Y-105811020D01*
X153808909Y-105210959D01*
X154134628Y-104426541D01*
X154135370Y-103577185D01*
X153811020Y-102792200D01*
X153728963Y-102710000D01*
X155690327Y-102710000D01*
X155295680Y-102848046D01*
G36*
X127927569Y-102872110D02*
X127876560Y-103124000D01*
X127876560Y-103330000D01*
X124360000Y-103330000D01*
X124050026Y-103391658D01*
X123977637Y-103440027D01*
X123787243Y-103567244D01*
X121927244Y-105427244D01*
X121751658Y-105690026D01*
X121690000Y-106000000D01*
X121690000Y-107440000D01*
X120585513Y-107440000D01*
X119071857Y-105926345D01*
X119573459Y-106134628D01*
X120422815Y-106135370D01*
X121207800Y-105811020D01*
X121808909Y-105210959D01*
X122134628Y-104426541D01*
X122135370Y-103577185D01*
X121811020Y-102792200D01*
X121728963Y-102710000D01*
X128038334Y-102710000D01*
X127927569Y-102872110D01*
X127927569Y-102872110D01*
G37*
X127927569Y-102872110D02*
X127876560Y-103124000D01*
X127876560Y-103330000D01*
X124360000Y-103330000D01*
X124050026Y-103391658D01*
X123977637Y-103440027D01*
X123787243Y-103567244D01*
X121927244Y-105427244D01*
X121751658Y-105690026D01*
X121690000Y-106000000D01*
X121690000Y-107440000D01*
X120585513Y-107440000D01*
X119071857Y-105926345D01*
X119573459Y-106134628D01*
X120422815Y-106135370D01*
X121207800Y-105811020D01*
X121808909Y-105210959D01*
X122134628Y-104426541D01*
X122135370Y-103577185D01*
X121811020Y-102792200D01*
X121728963Y-102710000D01*
X128038334Y-102710000D01*
X127927569Y-102872110D01*
G36*
X135554017Y-103757054D02*
X135672633Y-104013000D01*
X137033000Y-104013000D01*
X137033000Y-103993000D01*
X137287000Y-103993000D01*
X137287000Y-104013000D01*
X137307000Y-104013000D01*
X137307000Y-104267000D01*
X137287000Y-104267000D01*
X137287000Y-104287000D01*
X137033000Y-104287000D01*
X137033000Y-104267000D01*
X135672633Y-104267000D01*
X135554017Y-104522946D01*
X135822812Y-105108379D01*
X136295182Y-105546385D01*
X136762630Y-105740000D01*
X134500000Y-105740000D01*
X134209161Y-105797852D01*
X133962599Y-105962599D01*
X133387599Y-106537599D01*
X133222852Y-106784161D01*
X133189355Y-106952560D01*
X133185042Y-106952560D01*
X133185162Y-106814833D01*
X133043117Y-106471057D01*
X132817962Y-106245509D01*
X132828342Y-106229974D01*
X132890000Y-105920000D01*
X132890000Y-105578607D01*
X133247433Y-105339778D01*
X133605325Y-104804155D01*
X133731000Y-104172345D01*
X133731000Y-104107655D01*
X133605325Y-103475845D01*
X133494511Y-103310000D01*
X135759277Y-103310000D01*
X135554017Y-103757054D01*
X135554017Y-103757054D01*
G37*
X135554017Y-103757054D02*
X135672633Y-104013000D01*
X137033000Y-104013000D01*
X137033000Y-103993000D01*
X137287000Y-103993000D01*
X137287000Y-104013000D01*
X137307000Y-104013000D01*
X137307000Y-104267000D01*
X137287000Y-104267000D01*
X137287000Y-104287000D01*
X137033000Y-104287000D01*
X137033000Y-104267000D01*
X135672633Y-104267000D01*
X135554017Y-104522946D01*
X135822812Y-105108379D01*
X136295182Y-105546385D01*
X136762630Y-105740000D01*
X134500000Y-105740000D01*
X134209161Y-105797852D01*
X133962599Y-105962599D01*
X133387599Y-106537599D01*
X133222852Y-106784161D01*
X133189355Y-106952560D01*
X133185042Y-106952560D01*
X133185162Y-106814833D01*
X133043117Y-106471057D01*
X132817962Y-106245509D01*
X132828342Y-106229974D01*
X132890000Y-105920000D01*
X132890000Y-105578607D01*
X133247433Y-105339778D01*
X133605325Y-104804155D01*
X133731000Y-104172345D01*
X133731000Y-104107655D01*
X133605325Y-103475845D01*
X133494511Y-103310000D01*
X135759277Y-103310000D01*
X135554017Y-103757054D01*
M02*
