M48
;DRILL file {KiCad 0.201603031449+6606~43~ubuntu14.04.1-product} date mar. 08 mars 2016 23:21:40 CET
;FORMAT={-:-/ absolute / metric / decimal}
FMAT,2
METRIC,TZ
T1C0.400
T2C0.800
T3C1.016
T4C2.500
%
G90
G05
M71
T1
X118.2Y-107.1
X121.19Y-110.49
X125.19Y-110.49
X126.111Y-105.537
X127.Y-107.2
X127.889Y-114.554
X129.3Y-107.2
X129.413Y-109.855
X129.453Y-110.749
X131.064Y-102.362
X132.588Y-110.744
X132.588Y-111.633
X133.Y-112.8
X134.Y-110.2
X134.545Y-116.
X134.864Y-105.976
X135.Y-111.6
X136.5Y-111.3
X137.027Y-105.849
X137.825Y-104.742
X138.43Y-107.696
X138.8Y-108.6
X139.7Y-111.506
X141.478Y-108.5
X141.986Y-114.808
X142.Y-110.25
X142.Y-112.9
X142.631Y-116.91
X143.954Y-116.014
X144.462Y-112.776
X145.172Y-106.864
X145.584Y-110.464
X146.812Y-117.094
X146.9Y-102.7
X146.99Y-106.773
X148.59Y-111.633
X149.86Y-108.585
T2
X143.51Y-109.309
X143.51Y-114.191
T3
X115.57Y-109.22
X115.57Y-111.76
X115.57Y-119.38
X118.11Y-119.38
X120.65Y-119.38
X121.92Y-104.14
X123.19Y-119.38
X124.46Y-104.14
X125.73Y-119.38
X128.27Y-119.38
X130.81Y-119.38
X133.35Y-104.14
X133.35Y-119.38
X135.89Y-104.14
X135.89Y-119.38
X138.43Y-119.38
X140.97Y-119.38
X143.51Y-119.38
X146.05Y-119.38
X148.59Y-119.38
X151.13Y-119.38
T4
X116.84Y-104.14
X116.84Y-115.57
X149.86Y-104.14
X149.86Y-115.57
T0
M30
