G04 #@! TF.FileFunction,Soldermask,Bot*
%FSLAX46Y46*%
G04 Gerber Fmt 4.6, Leading zero omitted, Abs format (unit mm)*
G04 Created by KiCad (PCBNEW 0.201510100348+6257~30~ubuntu14.04.1-product) date jeu. 15 oct. 2015 23:40:22 CEST*
%MOMM*%
G01*
G04 APERTURE LIST*
%ADD10C,0.100000*%
%ADD11R,2.432000X2.432000*%
%ADD12O,2.432000X2.432000*%
%ADD13R,2.127200X2.432000*%
%ADD14O,2.127200X2.432000*%
%ADD15R,2.635200X2.635200*%
%ADD16R,2.432000X2.127200*%
%ADD17O,2.432000X2.127200*%
%ADD18R,1.850000X1.100000*%
%ADD19C,3.400000*%
%ADD20C,1.901140*%
G04 APERTURE END LIST*
D10*
D11*
X129540000Y-104140000D03*
D12*
X132080000Y-104140000D03*
D13*
X118110000Y-119380000D03*
D14*
X120650000Y-119380000D03*
X123190000Y-119380000D03*
X125730000Y-119380000D03*
X128270000Y-119380000D03*
X130810000Y-119380000D03*
X133350000Y-119380000D03*
X135890000Y-119380000D03*
X138430000Y-119380000D03*
X140970000Y-119380000D03*
X143510000Y-119380000D03*
X146050000Y-119380000D03*
X148590000Y-119380000D03*
D15*
X115570000Y-119380000D03*
D11*
X139700000Y-104140000D03*
D12*
X137160000Y-104140000D03*
D11*
X115570000Y-104140000D03*
D12*
X115570000Y-106680000D03*
D13*
X151130000Y-119380000D03*
D14*
X153670000Y-119380000D03*
X156210000Y-119380000D03*
D16*
X156210000Y-111760000D03*
D17*
X156210000Y-109220000D03*
X156210000Y-106680000D03*
X156210000Y-104140000D03*
D16*
X147320000Y-111760000D03*
D17*
X147320000Y-109220000D03*
X147320000Y-106680000D03*
X147320000Y-104140000D03*
D18*
X114925000Y-110000000D03*
X120075000Y-110000000D03*
X120075000Y-112000000D03*
X114925000Y-112000000D03*
D19*
X120000000Y-104000000D03*
X156000000Y-115500000D03*
X152000000Y-104000000D03*
X116000000Y-115500000D03*
D20*
X140000000Y-109309060D03*
X140000000Y-114190940D03*
M02*
