G04 #@! TF.FileFunction,Soldermask,Top*
%FSLAX46Y46*%
G04 Gerber Fmt 4.6, Leading zero omitted, Abs format (unit mm)*
G04 Created by KiCad (PCBNEW 0.201510100348+6257~30~ubuntu14.04.1-product) date jeu. 15 oct. 2015 23:40:22 CEST*
%MOMM*%
G01*
G04 APERTURE LIST*
%ADD10C,0.100000*%
%ADD11R,1.150000X1.200000*%
%ADD12R,1.200000X1.150000*%
%ADD13R,2.432000X2.432000*%
%ADD14O,2.432000X2.432000*%
%ADD15R,2.127200X2.432000*%
%ADD16O,2.127200X2.432000*%
%ADD17R,2.635200X2.635200*%
%ADD18R,2.432000X2.127200*%
%ADD19O,2.432000X2.127200*%
%ADD20R,1.300000X0.900000*%
%ADD21R,1.850000X1.100000*%
%ADD22R,0.452400X1.352400*%
%ADD23C,3.400000*%
%ADD24C,1.901140*%
G04 APERTURE END LIST*
D10*
D11*
X136500000Y-107750000D03*
X136500000Y-109250000D03*
X136500000Y-112750000D03*
X136500000Y-111250000D03*
D12*
X122250000Y-112000000D03*
X123750000Y-112000000D03*
D13*
X129540000Y-104140000D03*
D14*
X132080000Y-104140000D03*
D15*
X118110000Y-119380000D03*
D16*
X120650000Y-119380000D03*
X123190000Y-119380000D03*
X125730000Y-119380000D03*
X128270000Y-119380000D03*
X130810000Y-119380000D03*
X133350000Y-119380000D03*
X135890000Y-119380000D03*
X138430000Y-119380000D03*
X140970000Y-119380000D03*
X143510000Y-119380000D03*
X146050000Y-119380000D03*
X148590000Y-119380000D03*
D17*
X115570000Y-119380000D03*
D13*
X139700000Y-104140000D03*
D14*
X137160000Y-104140000D03*
D13*
X115570000Y-104140000D03*
D14*
X115570000Y-106680000D03*
D15*
X151130000Y-119380000D03*
D16*
X153670000Y-119380000D03*
X156210000Y-119380000D03*
D18*
X156210000Y-111760000D03*
D19*
X156210000Y-109220000D03*
X156210000Y-106680000D03*
X156210000Y-104140000D03*
D18*
X147320000Y-111760000D03*
D19*
X147320000Y-109220000D03*
X147320000Y-106680000D03*
X147320000Y-104140000D03*
D20*
X143500000Y-103750000D03*
X143500000Y-105250000D03*
X122500000Y-108250000D03*
X122500000Y-109750000D03*
D21*
X120075000Y-110000000D03*
X114925000Y-110000000D03*
X114925000Y-112000000D03*
X120075000Y-112000000D03*
D22*
X133275000Y-113800000D03*
X133925000Y-113800000D03*
X132625000Y-113800000D03*
X131975000Y-113800000D03*
X131325000Y-113800000D03*
X130675000Y-113800000D03*
X130025000Y-113800000D03*
X129375000Y-113800000D03*
X128075000Y-108200000D03*
X128725000Y-108200000D03*
X129375000Y-108200000D03*
X130025000Y-108200000D03*
X133925000Y-108200000D03*
X133275000Y-108200000D03*
X132625000Y-108200000D03*
X131975000Y-108200000D03*
X131325000Y-108200000D03*
X130675000Y-108200000D03*
X128725000Y-113800000D03*
X128075000Y-113800000D03*
D23*
X120000000Y-104000000D03*
X156000000Y-115500000D03*
X152000000Y-104000000D03*
X116000000Y-115500000D03*
D24*
X140000000Y-109309060D03*
X140000000Y-114190940D03*
M02*
